SplineFontDB: 3.2
FontName: Dreluhu
FullName: Dreluhu
FamilyName: Dreluhu
Weight: Book
Copyright: Copyright (c) 2019, Jack Humbert
UComments: "2019-8-23: Created with FontForge (http://fontforge.org)"
Version: 0.1
DefaultBaseFilename: fontforge-15
StrokeWidth: 66
ItalicAngle: 0
UnderlinePosition: -200
UnderlineWidth: 25
Ascent: 867
Descent: 133
InvalidEm: 0
sfntRevision: 0x0000199a
LayerCount: 2
Layer: 0 0 "Back" 1
Layer: 1 0 "Fore" 0
XUID: [1021 647 -312734098 29385]
StyleMap: 0x0040
FSType: 0
OS2Version: 3
OS2_WeightWidthSlopeOnly: 0
OS2_UseTypoMetrics: 0
CreationTime: 1566577596
ModificationTime: 1567908867
PfmFamily: 17
TTFWeight: 400
TTFWidth: 5
LineGap: 90
VLineGap: 90
Panose: 2 1 6 0 3 1 1 1 1 1
OS2TypoAscent: 0
OS2TypoAOffset: 1
OS2TypoDescent: 0
OS2TypoDOffset: 1
OS2TypoLinegap: 90
OS2WinAscent: 0
OS2WinAOffset: 1
OS2WinDescent: 0
OS2WinDOffset: 1
HheadAscent: 0
HheadAOffset: 1
HheadDescent: 0
HheadDOffset: 1
OS2Vendor: 'OLKB'
OS2CodePages: 00020000.00000000
Lookup: 6 0 0 "semivowels" { "semivowels contextual 0"  "semivowels contextual 1"  } ['liga' ('latn' <'dflt' > 'DFLT' <'dflt' > ) ]
Lookup: 1 0 0 "Single Substitution lookup 1" { "Single Substitution lookup 1 subtable"  } []
Lookup: 1 0 0 "Single Substitution lookup 2" { "Single Substitution lookup 2 subtable"  } []
Lookup: 4 0 1 "diphthongs" { "diphthongs subtable"  } ['liga' ('latn' <'dflt' > 'DFLT' <'dflt' > ) ]

StartChar: ny
Encoding: 0 60256 0
Width: 600
VWidth: 2494
GlyphClass: 2
Flags: HW
HStem: 401 66<132.991 466.991> 601 66<132.996 466.994 532.996 533> 801 66<132.999 466.999>
VStem: 66.9902 66.0008<467 601 667 801> 466.991 65.9992<467 601 667 801>
CounterMasks: 1 e0
AnchorPoint: "Above" 0 0 basechar 0
LayerCount: 2
Back
SplineSet
100 834 m 1
 500 834 l 1
 499.990234375 434 l 1
 99.990234375 434 l 1
 100 834 l 1
100 634 m 1
 500 634 l 1025
EndSplineSet
Fore
SplineSet
100 867 m 2
 500 867 l 2
 509.370903519 867 517.213676863 863.444049215 523.528320031 856.332147646 c 128
 529.842963199 849.220246077 533.000189852 841.775928307 532.99999999 833.999194336 c 2
 532.995922861 667 l 1
 533 667 l 1
 533 634 l 1
 533 601 l 1
 532.994311533 601 l 1
 532.990234365 433.999194336 l 2
 532.990011541 424.87231185 529.62079331 417.090725506 522.882579671 410.654435303 c 128
 516.144366033 404.218145101 508.513584268 401 499.990234375 401 c 2
 99.990234375 401 l 2
 90.6193308558 401 82.7765575122 404.555950785 76.4619143443 411.667852354 c 128
 70.1472711763 418.779753923 66.9900445231 426.224071693 66.9902343848 434.000805664 c 2
 67.0000000098 834.000805664 l 2
 67.0002228341 843.12768815 70.3694410654 850.909274494 77.1076547036 857.345564697 c 128
 83.8458683418 863.781854899 91.4766501073 867 100 867 c 2
466.995922842 667 m 1
 466.999194326 801 l 1
 132.999194346 801 l 1
 132.995922862 667 l 1
 466.995922842 667 l 1
466.994311513 601 m 1
 132.994311533 601 l 1
 132.991040049 467 l 1
 466.991040029 467 l 1
 466.994311513 601 l 1
EndSplineSet
Substitution2: "Single Substitution lookup 82 subtable" ny.cvc.3
Substitution2: "Single Substitution lookup 71 subtable" ny.cvc.1
Substitution2: "Single Substitution lookup 64 subtable" ny.ccv.2
Substitution2: "Single Substitution lookup 60 subtable" ny.cvc.3
Substitution2: "Single Substitution lookup 56 subtable" ny.cvc.1
Substitution2: "Single Substitution lookup 54 subtable" ny.ccv.1
Substitution2: "Single Substitution lookup 31 subtable" ny.ccv.2
Substitution2: "Single Substitution lookup 18 subtable" ny.ccv.2
EndChar

StartChar: dy
Encoding: 1 60257 1
Width: 600
VWidth: 2494
Flags: HW
HStem: 401 66<133 532> 601 66<133 466> 801 66<133 532>
VStem: 67 66<467 601 667 801>
CounterMasks: 1 e0
AnchorPoint: "Above" 0 0 basechar 0
LayerCount: 2
Back
SplineSet
433 634 m 29
 103 634 l 1029
499 834 m 29
 100 834 l 5
 100 434 l 5
 499 434 l 1029
EndSplineSet
Fore
SplineSet
532 834 m 1
 532 801 l 1
 499 801 l 1
 133 801 l 1
 133 667 l 1
 433 667 l 1
 466 667 l 1
 466 634 l 1
 466 601 l 1
 433 601 l 1
 133 601 l 1
 133 467 l 1
 499 467 l 1
 532 467 l 1
 532 434 l 1
 532 401 l 1
 499 401 l 1
 100 401 l 2
 92 401 84.5 404.166666667 77.5 410.5 c 128
 70.5 416.833333333 67 424.666666667 67 434 c 2
 67 834 l 2
 67 842 70.1666666667 849.5 76.5 856.5 c 128
 82.8333333333 863.5 90.6666666667 867 100 867 c 2
 499 867 l 1
 532 867 l 1
 532 834 l 1
EndSplineSet
Substitution2: "Single Substitution lookup 82 subtable" dy.cvc.3
Substitution2: "Single Substitution lookup 71 subtable" dy.cvc.1
Substitution2: "Single Substitution lookup 64 subtable" dy.ccv.2
Substitution2: "Single Substitution lookup 60 subtable" dy.cvc.3
Substitution2: "Single Substitution lookup 56 subtable" dy.cvc.1
Substitution2: "Single Substitution lookup 54 subtable" dy.ccv.1
Substitution2: "Single Substitution lookup 36 subtable" dy.ccv.2
Substitution2: "Single Substitution lookup 23 subtable" dy.ccv.2
EndChar

StartChar: ty
Encoding: 2 60258 2
Width: 600
VWidth: 2494
Flags: HW
HStem: 401 66<67 466> 601 66<134 466> 801 66<67 466>
VStem: 466 66<467 601 667 801>
CounterMasks: 1 e0
AnchorPoint: "Above" 0 0 basechar 0
LayerCount: 2
Back
SplineSet
167 634 m 29
 498 634 l 1029
100 834 m 29
 499 834 l 5
 499 434 l 5
 100 434 l 1029
EndSplineSet
Fore
SplineSet
67 834 m 1
 67 867 l 1
 100 867 l 1
 499 867 l 2
 508.333333333 867 516.166666667 863.5 522.5 856.5 c 128
 528.833333333 849.5 532 842 532 834 c 2
 532 434 l 2
 532 424.666666667 528.5 416.833333333 521.5 410.5 c 128
 514.5 404.166666667 507 401 499 401 c 2
 100 401 l 1
 67 401 l 1
 67 434 l 1
 67 467 l 1
 100 467 l 1
 466 467 l 1
 466 601 l 1
 167 601 l 1
 134 601 l 1
 134 634 l 1
 134 667 l 1
 167 667 l 1
 466 667 l 1
 466 801 l 1
 100 801 l 1
 67 801 l 1
 67 834 l 1
EndSplineSet
Substitution2: "Single Substitution lookup 82 subtable" ty.cvc.3
Substitution2: "Single Substitution lookup 71 subtable" ty.cvc.1
Substitution2: "Single Substitution lookup 64 subtable" ty.ccv.2
Substitution2: "Single Substitution lookup 60 subtable" ty.cvc.3
Substitution2: "Single Substitution lookup 56 subtable" ty.cvc.1
Substitution2: "Single Substitution lookup 54 subtable" ty.ccv.1
Substitution2: "Single Substitution lookup 28 subtable" ty.ccv.2
Substitution2: "Single Substitution lookup 15 subtable" ty.ccv.2
EndChar

StartChar: zy
Encoding: 3 60259 3
Width: 600
VWidth: 2494
Flags: HW
HStem: 401 66<133 403.957> 601 66<133 426.962> 847 20G<67 133 545.437 586.865>
VStem: 67 66<467 601 667 867>
AnchorPoint: "Above" 0 0 basechar 0
LayerCount: 2
Back
SplineSet
454 634 m 29
 100 634 l 1029
100 834 m 29
 100 434 l 5
 433 434 l 5
 435 500 449.666666667 572 477 650 c 132
 504.333333333 728 534.333333333 788.666666667 567 832 c 1028
EndSplineSet
Fore
SplineSet
100 867 m 1
 133 867 l 1
 133 834 l 1
 133 667 l 1
 448.007310906 667 l 1
 475.911856268 745.331652922 506.792328695 806.953254557 540.648728188 851.864804904 c 2
 560.513533092 878.216076716 l 1
 586.864804904 858.351271812 l 1
 613.216076716 838.486466908 l 1
 593.351271812 812.135195096 l 2
 562.746456702 771.53697097 534.343757328 713.854099325 508.143173689 639.08658016 c 128
 481.934614402 564.296301219 467.881842809 495.60092744 465.984858912 433.000458821 c 0
 465.722812644 424.352931982 462.36942624 416.857640468 455.924699701 410.514584281 c 128
 449.479973161 404.171528094 441.838406594 401 433 401 c 2
 100 401 l 2
 92 401 84.5 404.166666667 77.5 410.5 c 128
 70.5 416.833333333 67 424.666666667 67 434 c 2
 67 601 l 1
 67 634 l 1
 67 667 l 1
 67 834 l 1
 67 867 l 1
 100 867 l 1
133 601 m 1
 133 467 l 1
 401.881836621 467 l 1
 405.580150399 509.668492462 413.940196259 554.335159129 426.961974202 601 c 1
 133 601 l 1
EndSplineSet
Substitution2: "Single Substitution lookup 82 subtable" zy.cvc.3
Substitution2: "Single Substitution lookup 71 subtable" zy.cvc.1
Substitution2: "Single Substitution lookup 64 subtable" zy.ccv.2
Substitution2: "Single Substitution lookup 60 subtable" zy.cvc.3
Substitution2: "Single Substitution lookup 56 subtable" zy.cvc.1
Substitution2: "Single Substitution lookup 54 subtable" zy.ccv.1
Substitution2: "Single Substitution lookup 46 subtable" zy.ccv.2
EndChar

StartChar: sy
Encoding: 4 60260 4
Width: 600
VWidth: 2494
Flags: HW
HStem: 401 21G<12.1352 53.5634 466 532> 601 66<172.038 466> 801 66<195.043 466>
VStem: 466 66<401 601 667 801>
AnchorPoint: "Above" 0 0 basechar 0
LayerCount: 2
Back
SplineSet
145 634 m 5
 499 634 l 1029
499 434 m 5
 499 834 l 5
 166 834 l 5
 164 768 149.333333333 696 122 618 c 132
 94.6666666667 540 64.6666666667 479.333333333 32 436 c 1028
EndSplineSet
Fore
SplineSet
499 401 m 1
 466 401 l 1
 466 434 l 1
 466 601 l 1
 150.992689094 601 l 1
 123.088143732 522.668347078 92.2076713047 461.046745443 58.351271812 416.135195096 c 2
 38.4864669076 389.783923284 l 1
 12.1351950956 409.648728188 l 1
 -14.2160767164 429.513533092 l 1
 5.64872818801 455.864804904 l 2
 36.253543298 496.46302903 64.6562426724 554.145900675 90.8568263113 628.91341984 c 128
 117.065385598 703.703698781 131.118157191 772.39907256 133.015141088 834.999541179 c 0
 133.277187356 843.647068018 136.63057376 851.142359532 143.075300299 857.485415719 c 128
 149.520026839 863.828471906 157.161593406 867 166 867 c 2
 499 867 l 2
 507 867 514.5 863.833333333 521.5 857.5 c 128
 528.5 851.166666667 532 843.333333333 532 834 c 2
 532 667 l 1
 532 634 l 1
 532 601 l 1
 532 434 l 1
 532 401 l 1
 499 401 l 1
466 667 m 1
 466 801 l 1
 197.118163379 801 l 1
 193.419849601 758.331507538 185.059803741 713.664840871 172.038025798 667 c 1
 466 667 l 1
EndSplineSet
Substitution2: "Single Substitution lookup 82 subtable" sy.cvc.3
Substitution2: "Single Substitution lookup 71 subtable" sy.cvc.1
Substitution2: "Single Substitution lookup 64 subtable" sy.ccv.2
Substitution2: "Single Substitution lookup 60 subtable" sy.cvc.3
Substitution2: "Single Substitution lookup 56 subtable" sy.cvc.1
Substitution2: "Single Substitution lookup 54 subtable" sy.ccv.1
Substitution2: "Single Substitution lookup 41 subtable" sy.ccv.2
EndChar

StartChar: gy
Encoding: 5 60261 5
Width: 600
VWidth: 2494
Flags: HW
HStem: 389.726 21G<485.242 524.758> 858.274 20G<485.242 524.758>
AnchorPoint: "Above" 0 0 basechar 0
LayerCount: 2
Back
SplineSet
500 834 m 5
 100 634 l 5
 500 434 l 1029
EndSplineSet
Fore
SplineSet
529.516097303 848.758048651 m 1
 544.274145954 819.241951349 l 1
 514.758048651 804.483902697 l 1
 173.790243257 634 l 1
 514.758048651 463.516097303 l 1
 544.274145954 448.758048651 l 1
 529.516097303 419.241951349 l 1
 514.758048651 389.725854046 l 1
 485.241951349 404.483902697 l 1
 85.2419513485 604.483902697 l 2
 79.5307221712 607.339517286 75.027658318 611.502115115 71.7327597887 616.971696184 c 0
 66.838687728 625.095929346 65.745910445 633.823992226 68.4544279397 643.155884824 c 128
 71.1629454345 652.487777421 76.7587865708 659.274514914 85.2419513485 663.516097303 c 2
 485.241951349 863.516097303 l 1
 514.758048651 878.274145954 l 1
 529.516097303 848.758048651 l 1
EndSplineSet
Substitution2: "Single Substitution lookup 82 subtable" gy.cvc.3
Substitution2: "Single Substitution lookup 71 subtable" gy.cvc.1
Substitution2: "Single Substitution lookup 64 subtable" gy.ccv.2
Substitution2: "Single Substitution lookup 60 subtable" gy.cvc.3
Substitution2: "Single Substitution lookup 56 subtable" gy.cvc.1
Substitution2: "Single Substitution lookup 54 subtable" gy.ccv.1
Substitution2: "Single Substitution lookup 37 subtable" gy.ccv.2
Substitution2: "Single Substitution lookup 24 subtable" gy.ccv.2
EndChar

StartChar: jy
Encoding: 6 60262 6
Width: 600
VWidth: 2494
Flags: HW
HStem: 401 21G<267 333> 534 66<67 262.062 337.833 532> 801 66<67 180.596 421.893 532>
VStem: 267 66<401 534>
AnchorPoint: "Above" 0 0 basechar 0
LayerCount: 2
Back
SplineSet
100 567 m 5
 499 567 l 1025
300 504 m 5
 300 434 l 1025
100 834 m 4
 234 834 300.666666667 724 300 504 c 1
 299.333333333 612.666666667 315.833333333 694.833333333 349.5 750.5 c 0
 383.166666667 806.166666667 433 834 499 834 c 1024
EndSplineSet
Fore
SplineSet
67 834 m 1
 67 867 l 1
 100 867 l 2
 146.956235504 867 187.55775103 854.745858583 221.804546577 830.237575748 c 128
 256.051342124 805.729292914 282.173785291 770.586977826 300.171876079 724.810630483 c 1
 306.383331697 740.343943422 313.413568262 754.599639123 321.262585775 767.577717585 c 0
 361.349015012 833.859239195 420.594819754 867 499 867 c 2
 532 867 l 1
 532 834 l 1
 532 801 l 1
 499 801 l 2
 445.405180246 801 404.984318321 778.474094138 377.737414225 733.422282415 c 0
 360.154323344 704.349250959 347.736426129 666.366603508 340.483722582 619.474340061 c 0
 339.504278387 613.141755953 338.620712011 606.650309266 337.833023453 600 c 1
 499 600 l 1
 532 600 l 1
 532 567 l 1
 532 534 l 1
 499 534 l 1
 333.282611659 534 l 1
 333.133050164 528.202838415 333.038846278 522.313953296 333 516.333344641 c 2
 333 510.353367417 l 2
 333.006179299 508.157956448 333.006179299 506.023638721 333 503.950414238 c 2
 333 434 l 1
 333 401 l 1
 300 401 l 1
 267 401 l 1
 267 434 l 1
 267 503.899689546 l 2
 266.981841606 506.913496016 266.977014549 510.141893794 266.98551883 513.584882879 c 0
 266.939254139 520.514547253 266.823058658 527.319586293 266.636932387 534 c 1
 100 534 l 1
 67 534 l 1
 67 567 l 1
 67 600 l 1
 100 600 l 1
 262.061814411 600 l 1
 261.266304182 606.795931521 260.374844893 613.420869925 259.387436544 619.874815214 c 0
 249.577417331 683.995528167 231.66597063 730.213237203 205.653096439 758.527942322 c 128
 179.640222249 786.842647441 144.422523436 801 100 801 c 2
 67 801 l 1
 67 834 l 1
EndSplineSet
Substitution2: "Single Substitution lookup 82 subtable" jy.cvc.3
Substitution2: "Single Substitution lookup 71 subtable" jy.cvc.1
Substitution2: "Single Substitution lookup 64 subtable" jy.ccv.2
Substitution2: "Single Substitution lookup 60 subtable" jy.cvc.3
Substitution2: "Single Substitution lookup 56 subtable" jy.cvc.1
Substitution2: "Single Substitution lookup 54 subtable" jy.ccv.1
Substitution2: "Single Substitution lookup 44 subtable" jy.ccv.2
EndChar

StartChar: xy
Encoding: 7 60263 7
Width: 600
VWidth: 2494
Flags: HW
HStem: 391.593 21G<71.3476 108.61 487.538 525.892> 847 20G<267 333>
VStem: 267 66<576.507 867>
AnchorPoint: "Above" 0 0 basechar 0
LayerCount: 2
Back
SplineSet
300 690 m 5
 300 834 l 1025
499 434 m 4
 444.608723959 454.145182292 406.957682292 471.874348959 386.046875 487.1875 c 0
 328.682291667 529.197265625 300 596.801432292 300 690 c 1
 300 653.333333333 296 621 288 593 c 0
 280 565 270.333333333 542.5 259 525.5 c 0
 247.666666667 508.5 232.333333333 493.666666667 213 481 c 0
 193.666666667 468.333333333 176.166666667 459 160.5 453 c 0
 144.833333333 447 124.666666667 440.666666667 100 434 c 1024
EndSplineSet
Fore
SplineSet
333 690 m 2
 333 607.958707977 357.181496228 549.229243563 405.544488683 513.811606758 c 0
 423.977528014 500.312944966 458.949867268 484.024296031 510.461506445 464.945659954 c 2
 541.4071664 453.484153509 l 1
 518.484153509 391.5928336 l 1
 487.538493555 403.054340046 l 2
 430.267580649 424.266068552 389.93783657 443.435752951 366.549261317 460.563393242 c 0
 339.623338394 480.282035747 318.012421158 504.963939701 301.716509607 534.609105103 c 1
 296.891444866 524.354216833 291.805161568 515.216146307 286.457659713 507.194893525 c 0
 272.632839522 486.457663239 254.175241782 468.524959639 231.084866491 453.396782724 c 0
 209.772576836 439.433558467 190.178407938 429.02887329 172.302359798 422.182727194 c 0
 155.589225441 415.781952334 134.358438118 409.102045946 108.60999783 402.14300803 c 2
 76.7530058598 393.5330102 l 1
 59.5330102004 457.24699414 l 1
 91.3900021703 465.85699197 l 2
 114.974895215 472.231287387 134.077441226 478.218047666 148.697640202 483.817272806 c 0
 162.154925395 488.97112671 177.560756498 497.2331082 194.915133509 508.603217276 c 0
 210.491424885 518.808373695 222.700493811 530.542336761 231.542340287 543.805106475 c 0
 240.97070772 557.947657624 249.2131642 577.367887873 256.269709728 602.065797221 c 0
 263.423236576 627.103141189 267 656.414542115 267 690 c 2
 267 834 l 1
 267 867 l 1
 300 867 l 1
 333 867 l 1
 333 834 l 1
 333 690 l 2
EndSplineSet
Substitution2: "Single Substitution lookup 82 subtable" xy.cvc.3
Substitution2: "Single Substitution lookup 71 subtable" xy.cvc.1
Substitution2: "Single Substitution lookup 64 subtable" xy.ccv.2
Substitution2: "Single Substitution lookup 60 subtable" xy.cvc.3
Substitution2: "Single Substitution lookup 56 subtable" xy.cvc.1
Substitution2: "Single Substitution lookup 54 subtable" xy.ccv.1
EndChar

StartChar: iy
Encoding: 8 60264 8
Width: 600
VWidth: 2494
Flags: HW
HStem: 401 21G<67 133> 801 66<133 533>
VStem: 67 66<401 801>
AnchorPoint: "Above" 0 0 basechar 0
LayerCount: 2
Back
SplineSet
100 434 m 29
 100 834 l 29
 500 834 l 1053
EndSplineSet
Fore
SplineSet
100 401 m 1
 67 401 l 1
 67 434 l 1
 67 834 l 2
 67 843.333333333 70.5 851.166666667 77.5 857.5 c 128
 84.5 863.833333333 92 867 100 867 c 2
 500 867 l 1
 533 867 l 1
 533 834 l 1
 533 801 l 1
 500 801 l 1
 133 801 l 1
 133 434 l 1
 133 401 l 1
 100 401 l 1
EndSplineSet
Substitution2: "Single Substitution lookup 82 subtable" iy.cvc.3
Substitution2: "Single Substitution lookup 71 subtable" iy.cvc.1
Substitution2: "Single Substitution lookup 64 subtable" iy.ccv.2
Substitution2: "Single Substitution lookup 60 subtable" iy.cvc.3
Substitution2: "Single Substitution lookup 56 subtable" iy.cvc.1
Substitution2: "Single Substitution lookup 54 subtable" iy.ccv.1
EndChar

StartChar: ry
Encoding: 9 60265 9
Width: 600
VWidth: 2494
Flags: HW
AnchorPoint: "Above" 0 0 basechar 0
LayerCount: 2
Back
SplineSet
100 434 m 29
 499 834 l 1025
100 834 m 29
 499 434 l 1025
EndSplineSet
Fore
SplineSet
76.6946991343 857.363710141 m 1
 100.058409275 880.669011007 l 1
 123.363710141 857.305300866 l 1
 299.5 680.727566672 l 1
 475.636289859 857.305300866 l 1
 498.941590725 880.669011007 l 1
 522.305300866 857.363710141 l 1
 545.669011007 834.058409275 l 1
 522.363710141 810.694699134 l 1
 346.110747755 634 l 1
 522.363710141 457.305300866 l 1
 545.669011007 433.941590725 l 1
 522.305300866 410.636289859 l 1
 498.941590725 387.330988993 l 1
 475.636289859 410.694699134 l 1
 299.5 587.272433328 l 1
 123.363710141 410.694699134 l 1
 100.058409275 387.330988993 l 1
 76.6946991343 410.636289859 l 1
 53.3309889932 433.941590725 l 1
 76.6362898589 457.305300866 l 1
 252.889252245 634 l 1
 76.6362898589 810.694699134 l 1
 53.3309889932 834.058409275 l 1
 76.6946991343 857.363710141 l 1
EndSplineSet
Substitution2: "Single Substitution lookup 82 subtable" ry.cvc.3
Substitution2: "Single Substitution lookup 71 subtable" ry.cvc.1
Substitution2: "Single Substitution lookup 64 subtable" ry.ccv.2
Substitution2: "Single Substitution lookup 60 subtable" ry.cvc.3
Substitution2: "Single Substitution lookup 56 subtable" ry.cvc.1
Substitution2: "Single Substitution lookup 54 subtable" ry.ccv.1
Substitution2: "Single Substitution lookup 52 subtable" ry.ccv.2
Substitution2: "Single Substitution lookup 50 subtable" ry.ccv.2
Substitution2: "Single Substitution lookup 48 subtable" ry.ccv.2
Substitution2: "Single Substitution lookup 45 subtable" ry.ccv.2
Substitution2: "Single Substitution lookup 43 subtable" ry.ccv.2
Substitution2: "Single Substitution lookup 40 subtable" ry.ccv.2
Substitution2: "Single Substitution lookup 33 subtable" ry.ccv.2
Substitution2: "Single Substitution lookup 20 subtable" ry.ccv.2
Substitution2: "Single Substitution lookup 12 subtable" ry.ccv.2
Substitution2: "Single Substitution lookup 10 subtable" ry.ccv.2
Substitution2: "Single Substitution lookup 8 subtable" ry.ccv.2
Substitution2: "Single Substitution lookup 6 subtable" ry.ccv.2
EndChar

StartChar: my
Encoding: 16 60272 16
Width: 600
VWidth: 2494
Flags: HW
HStem: 401 66<133 466> 801 66<133 466>
VStem: 67 66<467 801> 466 66<467 801>
AnchorPoint: "Above" 0 0 basechar 0
LayerCount: 2
Back
SplineSet
100 834 m 29
 499 834 l 1
 499 434 l 1
 100 434 l 1
 100 834 l 29
EndSplineSet
Fore
SplineSet
100 867 m 2
 499 867 l 2
 508.333333333 867 516.166666667 863.5 522.5 856.5 c 128
 528.833333333 849.5 532 842 532 834 c 2
 532 434 l 2
 532 424.666666667 528.5 416.833333333 521.5 410.5 c 128
 514.5 404.166666667 507 401 499 401 c 2
 100 401 l 2
 90.6666666667 401 82.8333333333 404.5 76.5 411.5 c 128
 70.1666666667 418.5 67 426 67 434 c 2
 67 834 l 2
 67 843.333333333 70.5 851.166666667 77.5 857.5 c 128
 84.5 863.833333333 92 867 100 867 c 2
133 801 m 1
 133 467 l 1
 466 467 l 1
 466 801 l 1
 133 801 l 1
EndSplineSet
Substitution2: "Single Substitution lookup 82 subtable" my.cvc.3
Substitution2: "Single Substitution lookup 71 subtable" my.cvc.1
Substitution2: "Single Substitution lookup 64 subtable" my.ccv.2
Substitution2: "Single Substitution lookup 60 subtable" my.cvc.3
Substitution2: "Single Substitution lookup 56 subtable" my.cvc.1
Substitution2: "Single Substitution lookup 54 subtable" my.ccv.1
Substitution2: "Single Substitution lookup 38 subtable" my.ccv.2
Substitution2: "Single Substitution lookup 30 subtable" my.ccv.2
Substitution2: "Single Substitution lookup 25 subtable" my.ccv.2
Substitution2: "Single Substitution lookup 17 subtable" my.ccv.2
EndChar

StartChar: by
Encoding: 17 60273 17
Width: 600
VWidth: 2494
Flags: HW
HStem: 401 66<133 532> 801 66<133 532>
VStem: 67 66<467 801>
AnchorPoint: "Above" 0 0 basechar 0
LayerCount: 2
Back
SplineSet
499 834 m 29
 100 834 l 1
 100 434 l 1
 499 434 l 1025
EndSplineSet
Fore
SplineSet
532 834 m 1
 532 801 l 1
 499 801 l 1
 133 801 l 1
 133 467 l 1
 499 467 l 1
 532 467 l 1
 532 434 l 1
 532 401 l 1
 499 401 l 1
 100 401 l 2
 92 401 84.5 404.166666667 77.5 410.5 c 128
 70.5 416.833333333 67 424.666666667 67 434 c 2
 67 834 l 2
 67 842 70.1666666667 849.5 76.5 856.5 c 128
 82.8333333333 863.5 90.6666666667 867 100 867 c 2
 499 867 l 1
 532 867 l 1
 532 834 l 1
EndSplineSet
Substitution2: "Single Substitution lookup 82 subtable" by.cvc.3
Substitution2: "Single Substitution lookup 71 subtable" by.cvc.1
Substitution2: "Single Substitution lookup 64 subtable" by.ccv.2
Substitution2: "Single Substitution lookup 60 subtable" by.cvc.3
Substitution2: "Single Substitution lookup 56 subtable" by.cvc.1
Substitution2: "Single Substitution lookup 54 subtable" by.ccv.1
Substitution2: "Single Substitution lookup 34 subtable" by.ccv.2
Substitution2: "Single Substitution lookup 21 subtable" by.ccv.2
EndChar

StartChar: py
Encoding: 18 60274 18
Width: 600
VWidth: 2494
Flags: HW
HStem: 401 66<67 466> 801 66<67 466>
VStem: 466 66<467 801>
AnchorPoint: "Above" 0 0 basechar 0
LayerCount: 2
Back
SplineSet
100 834 m 29
 499 834 l 5
 499 434 l 5
 100 434 l 1029
EndSplineSet
Fore
SplineSet
67 834 m 1
 67 867 l 1
 100 867 l 1
 499 867 l 2
 508.333333333 867 516.166666667 863.5 522.5 856.5 c 128
 528.833333333 849.5 532 842 532 834 c 2
 532 434 l 2
 532 424.666666667 528.5 416.833333333 521.5 410.5 c 128
 514.5 404.166666667 507 401 499 401 c 2
 100 401 l 1
 67 401 l 1
 67 434 l 1
 67 467 l 1
 100 467 l 1
 466 467 l 1
 466 801 l 1
 100 801 l 1
 67 801 l 1
 67 834 l 1
EndSplineSet
Substitution2: "Single Substitution lookup 82 subtable" py.cvc.3
Substitution2: "Single Substitution lookup 71 subtable" py.cvc.1
Substitution2: "Single Substitution lookup 64 subtable" py.ccv.2
Substitution2: "Single Substitution lookup 60 subtable" py.cvc.3
Substitution2: "Single Substitution lookup 56 subtable" py.cvc.1
Substitution2: "Single Substitution lookup 54 subtable" py.ccv.1
Substitution2: "Single Substitution lookup 26 subtable" py.ccv.2
Substitution2: "Single Substitution lookup 13 subtable" py.ccv.2
EndChar

StartChar: vy
Encoding: 19 60275 19
Width: 600
VWidth: 2494
Flags: HW
HStem: 401 66<133 403.943> 847 20G<67 133 545.437 586.865>
VStem: 67 66<467 867>
AnchorPoint: "Above" 0 0 basechar 0
LayerCount: 2
Back
SplineSet
100 834 m 29
 100 434 l 5
 433 434 l 5
 435 500 449.666666667 572 477 650 c 132
 504.333333333 728 534.333333333 788.666666667 567 832 c 1028
EndSplineSet
Fore
SplineSet
100 867 m 1
 133 867 l 1
 133 834 l 1
 133 467 l 1
 401.881836621 467 l 1
 407.134928488 527.606407192 421.793258385 592.244213805 445.856826311 660.91341984 c 0
 474.322909339 742.145900675 505.920209965 805.796362363 540.648728188 851.864804904 c 2
 560.513533092 878.216076716 l 1
 586.864804904 858.351271812 l 1
 613.216076716 838.486466908 l 1
 593.351271812 812.135195096 l 2
 562.746456702 771.53697097 534.343757328 713.854099325 508.143173689 639.08658016 c 128
 481.934614402 564.296301219 467.881842809 495.60092744 465.984858912 433.000458821 c 0
 465.722812644 424.352931982 462.36942624 416.857640468 455.924699701 410.514584281 c 128
 449.479973161 404.171528094 441.838406594 401 433 401 c 2
 100 401 l 2
 92 401 84.5 404.166666667 77.5 410.5 c 128
 70.5 416.833333333 67 424.666666667 67 434 c 2
 67 834 l 1
 67 867 l 1
 100 867 l 1
EndSplineSet
Substitution2: "Single Substitution lookup 82 subtable" vy.cvc.3
Substitution2: "Single Substitution lookup 71 subtable" vy.cvc.1
Substitution2: "Single Substitution lookup 64 subtable" vy.ccv.2
Substitution2: "Single Substitution lookup 60 subtable" vy.cvc.3
Substitution2: "Single Substitution lookup 56 subtable" vy.cvc.1
Substitution2: "Single Substitution lookup 54 subtable" vy.ccv.1
Substitution2: "Single Substitution lookup 35 subtable" vy.ccv.2
Substitution2: "Single Substitution lookup 22 subtable" vy.ccv.2
EndChar

StartChar: fy
Encoding: 20 60276 20
Width: 600
VWidth: 2494
Flags: HW
HStem: 401 21G<12.1352 53.5634 466 532> 801 66<195.057 466>
VStem: 466 66<401 801>
AnchorPoint: "Above" 0 0 basechar 0
LayerCount: 2
Back
SplineSet
499 434 m 5
 499 834 l 1
 166 834 l 1
 164 768 149.333333333 696 122 618 c 0
 94.6666666667 540 64.6666666667 479.333333333 32 436 c 1024
EndSplineSet
Fore
SplineSet
499 401 m 1
 466 401 l 1
 466 434 l 1
 466 801 l 1
 197.118163379 801 l 1
 191.865071512 740.393592808 177.206741615 675.755786195 153.143173689 607.08658016 c 0
 124.677090661 525.854099325 93.0797900353 462.203637637 58.351271812 416.135195096 c 2
 38.4864669076 389.783923284 l 1
 12.1351950956 409.648728188 l 1
 -14.2160767164 429.513533092 l 1
 5.64872818801 455.864804904 l 2
 36.253543298 496.46302903 64.6562426724 554.145900675 90.8568263113 628.91341984 c 128
 117.065385598 703.703698781 131.118157191 772.39907256 133.015141088 834.999541179 c 0
 133.277187356 843.647068018 136.63057376 851.142359532 143.075300299 857.485415719 c 128
 149.520026839 863.828471906 157.161593406 867 166 867 c 2
 499 867 l 2
 507 867 514.5 863.833333333 521.5 857.5 c 128
 528.5 851.166666667 532 843.333333333 532 834 c 2
 532 434 l 1
 532 401 l 1
 499 401 l 1
EndSplineSet
Substitution2: "Single Substitution lookup 82 subtable" fy.cvc.3
Substitution2: "Single Substitution lookup 71 subtable" fy.cvc.1
Substitution2: "Single Substitution lookup 64 subtable" fy.ccv.2
Substitution2: "Single Substitution lookup 60 subtable" fy.cvc.3
Substitution2: "Single Substitution lookup 56 subtable" fy.cvc.1
Substitution2: "Single Substitution lookup 54 subtable" fy.ccv.1
Substitution2: "Single Substitution lookup 27 subtable" fy.ccv.2
Substitution2: "Single Substitution lookup 14 subtable" fy.ccv.2
EndChar

StartChar: ky
Encoding: 21 60277 21
Width: 600
VWidth: 2494
Flags: HW
HStem: 389.726 21G<75.242 114.758> 858.274 20G<75.242 114.758>
AnchorPoint: "Above" 0 0 basechar 0
LayerCount: 2
Back
SplineSet
100 434 m 5
 500 634 l 5
 100 834 l 1029
EndSplineSet
Fore
SplineSet
70.483902697 419.241951349 m 1
 55.7258540455 448.758048651 l 1
 85.2419513485 463.516097303 l 1
 426.209756743 634 l 1
 85.2419513485 804.483902697 l 1
 55.7258540455 819.241951349 l 1
 70.483902697 848.758048651 l 1
 85.2419513485 878.274145954 l 1
 114.758048651 863.516097303 l 1
 514.758048651 663.516097303 l 2
 520.469277828 660.660482714 524.972341682 656.497884885 528.267240211 651.028303816 c 0
 533.161312272 642.904070654 534.254089555 634.176007774 531.54557206 624.844115176 c 128
 528.837054565 615.512222579 523.241213429 608.725485086 514.758048651 604.483902697 c 2
 114.758048651 404.483902697 l 1
 85.2419513485 389.725854046 l 1
 70.483902697 419.241951349 l 1
EndSplineSet
Substitution2: "Single Substitution lookup 82 subtable" ky.cvc.3
Substitution2: "Single Substitution lookup 71 subtable" ky.cvc.1
Substitution2: "Single Substitution lookup 64 subtable" ky.ccv.2
Substitution2: "Single Substitution lookup 60 subtable" ky.cvc.3
Substitution2: "Single Substitution lookup 56 subtable" ky.cvc.1
Substitution2: "Single Substitution lookup 54 subtable" ky.ccv.1
Substitution2: "Single Substitution lookup 29 subtable" ky.ccv.2
Substitution2: "Single Substitution lookup 16 subtable" ky.ccv.2
EndChar

StartChar: cy
Encoding: 22 60278 22
Width: 600
VWidth: 2494
Flags: HW
HStem: 401 66<67 177.107 418.404 532> 601 66<67 248.581 349.098 532> 847 20G<266 332>
VStem: 266 66<668.245 867>
AnchorPoint: "Above" 0 0 basechar 0
LayerCount: 2
Back
SplineSet
499 634 m 5
 100 634 l 1025
299 764 m 5
 299 834 l 1025
499 434 m 4
 365 434 298.333333333 544 299 764 c 1
 299.666666667 655.333333333 283.166666667 573.166666667 249.5 517.5 c 0
 215.833333333 461.833333333 166 434 100 434 c 1024
EndSplineSet
Fore
SplineSet
532 434 m 1
 532 401 l 1
 499 401 l 2
 452.043764496 401 411.44224897 413.254141417 377.195453423 437.762424252 c 128
 342.948657876 462.270707086 316.826214709 497.413022174 298.828123921 543.189369517 c 1
 292.616668303 527.656056578 285.586431738 513.400360877 277.737414225 500.422282415 c 0
 237.650984988 434.140760805 178.405180246 401 100 401 c 2
 67 401 l 1
 67 434 l 1
 67 467 l 1
 100 467 l 2
 153.594819754 467 194.015681679 489.525905862 221.262585775 534.577717585 c 0
 232.46562169 553.101549245 241.571806345 575.24231005 248.581139742 601 c 1
 100 601 l 1
 67 601 l 1
 67 634 l 1
 67 667 l 1
 100 667 l 1
 261.047666129 667 l 1
 264.150283023 692.816626824 265.80106098 721.038845277 266 751.666655359 c 2
 266 757.646632583 l 2
 265.993820701 759.842043552 265.993820701 761.976361279 266 764.049585762 c 2
 266 834 l 1
 266 867 l 1
 299 867 l 1
 332 867 l 1
 332 834 l 1
 332 764.100310454 l 2
 332.018158394 761.086503984 332.022985451 757.858106206 332.01448117 754.415117121 c 0
 332.226490965 722.659653617 333.907024396 693.521281243 337.056081461 667 c 1
 499 667 l 1
 532 667 l 1
 532 634 l 1
 532 601 l 1
 499 601 l 1
 349.097894073 601 l 1
 359.465224089 560.806337431 374.214893918 530.297023323 393.346903561 509.472057678 c 0
 419.359777751 481.157352559 454.577476564 467 499 467 c 2
 532 467 l 1
 532 434 l 1
EndSplineSet
Substitution2: "Single Substitution lookup 82 subtable" cy.cvc.3
Substitution2: "Single Substitution lookup 71 subtable" cy.cvc.1
Substitution2: "Single Substitution lookup 64 subtable" cy.ccv.2
Substitution2: "Single Substitution lookup 60 subtable" cy.cvc.3
Substitution2: "Single Substitution lookup 56 subtable" cy.cvc.1
Substitution2: "Single Substitution lookup 54 subtable" cy.ccv.1
Substitution2: "Single Substitution lookup 39 subtable" cy.ccv.2
EndChar

StartChar: yhy
Encoding: 23 60279 23
Width: 600
VWidth: 2494
Flags: HW
HStem: 401 21G<466 532> 847 20G<67 133>
VStem: 67 66<513.81 867> 466 66<401 754.19>
AnchorPoint: "Above" 0 0 basechar 0
LayerCount: 2
Back
SplineSet
100 834 m 29
 100 434 l 1
 499 834 l 1
 499 434 l 1025
EndSplineSet
Fore
SplineSet
100 867 m 1
 133 867 l 1
 133 834 l 1
 133 513.810273438 l 1
 475.636289859 857.305300866 l 2
 482.334421574 864.020219878 490.538481892 867.193016454 500.248470815 866.823690593 c 128
 509.958459738 866.454364732 517.897806363 862.66754298 524.066510691 855.463225335 c 0
 529.355503564 849.286306707 532 842.131898262 532 834 c 2
 532 434 l 1
 532 401 l 1
 499 401 l 1
 466 401 l 1
 466 434 l 1
 466 754.189726562 l 1
 123.363710141 410.694699134 l 2
 117.62079088 404.937386592 110.69591544 401.739727803 102.58908382 401.101722766 c 0
 93.1338532106 400.357599163 84.8385315883 403.28349783 77.703118953 409.879418766 c 128
 70.5677063177 416.475339701 67 424.515533446 67 434 c 2
 67 834 l 1
 67 867 l 1
 100 867 l 1
EndSplineSet
Substitution2: "Single Substitution lookup 82 subtable" yhy.cvc.3
Substitution2: "Single Substitution lookup 71 subtable" yhy.cvc.1
Substitution2: "Single Substitution lookup 64 subtable" yhy.ccv.2
Substitution2: "Single Substitution lookup 60 subtable" yhy.cvc.3
Substitution2: "Single Substitution lookup 56 subtable" yhy.cvc.1
Substitution2: "Single Substitution lookup 54 subtable" yhy.ccv.1
EndChar

StartChar: uy
Encoding: 24 60280 24
Width: 600
VWidth: 2494
Flags: HW
HStem: 401 66<67 467> 847 20G<467 533>
VStem: 467 66<467 867>
AnchorPoint: "Above" 0 0 basechar 0
LayerCount: 2
Back
SplineSet
100 434 m 29
 500 434 l 29
 500 834 l 1053
EndSplineSet
Fore
SplineSet
67 434 m 1
 67 467 l 1
 100 467 l 1
 467 467 l 1
 467 834 l 1
 467 867 l 1
 500 867 l 1
 533 867 l 1
 533 834 l 1
 533 434 l 2
 533 426 529.833333333 418.5 523.5 411.5 c 128
 517.166666667 404.5 509.333333333 401 500 401 c 2
 100 401 l 1
 67 401 l 1
 67 434 l 1
EndSplineSet
Substitution2: "Single Substitution lookup 82 subtable" uy.cvc.3
Substitution2: "Single Substitution lookup 71 subtable" uy.cvc.1
Substitution2: "Single Substitution lookup 64 subtable" uy.ccv.2
Substitution2: "Single Substitution lookup 60 subtable" uy.cvc.3
Substitution2: "Single Substitution lookup 56 subtable" uy.cvc.1
Substitution2: "Single Substitution lookup 54 subtable" uy.ccv.1
EndChar

StartChar: ly
Encoding: 25 60281 25
Width: 600
VWidth: 2494
Flags: HW
HStem: 401 66<133 532> 601 66<133 466> 801 66<67 466>
VStem: 67 66<467 601> 466 66<667 801>
CounterMasks: 1 e0
AnchorPoint: "Above" 0 0 basechar 0
LayerCount: 2
Back
SplineSet
100 834 m 29
 499 834 l 5
 499 634 l 5
 100 634 l 5
 100 434 l 5
 499 434 l 1029
EndSplineSet
Fore
SplineSet
67 834 m 1
 67 867 l 1
 100 867 l 1
 499 867 l 2
 508.333333333 867 516.166666667 863.5 522.5 856.5 c 128
 528.833333333 849.5 532 842 532 834 c 2
 532 634 l 2
 532 624.666666667 528.5 616.833333333 521.5 610.5 c 128
 514.5 604.166666667 507 601 499 601 c 2
 133 601 l 1
 133 467 l 1
 499 467 l 1
 532 467 l 1
 532 434 l 1
 532 401 l 1
 499 401 l 1
 100 401 l 2
 92 401 84.5 404.166666667 77.5 410.5 c 128
 70.5 416.833333333 67 424.666666667 67 434 c 2
 67 634 l 2
 67 642 70.1666666667 649.5 76.5 656.5 c 128
 82.8333333333 663.5 90.6666666667 667 100 667 c 2
 466 667 l 1
 466 801 l 1
 100 801 l 1
 67 801 l 1
 67 834 l 1
EndSplineSet
Substitution2: "Single Substitution lookup 82 subtable" ly.cvc.3
Substitution2: "Single Substitution lookup 71 subtable" ly.cvc.1
Substitution2: "Single Substitution lookup 64 subtable" ly.ccv.2
Substitution2: "Single Substitution lookup 60 subtable" ly.cvc.3
Substitution2: "Single Substitution lookup 56 subtable" ly.cvc.1
Substitution2: "Single Substitution lookup 54 subtable" ly.ccv.1
Substitution2: "Single Substitution lookup 51 subtable" ly.ccv.2
Substitution2: "Single Substitution lookup 49 subtable" ly.ccv.2
Substitution2: "Single Substitution lookup 47 subtable" ly.ccv.2
Substitution2: "Single Substitution lookup 42 subtable" ly.ccv.2
Substitution2: "Single Substitution lookup 32 subtable" ly.ccv.2
Substitution2: "Single Substitution lookup 19 subtable" ly.ccv.2
Substitution2: "Single Substitution lookup 11 subtable" ly.ccv.2
Substitution2: "Single Substitution lookup 9 subtable" ly.ccv.2
Substitution2: "Single Substitution lookup 7 subtable" ly.ccv.2
Substitution2: "Single Substitution lookup 5 subtable" ly.ccv.2
EndChar

StartChar: denpabu
Encoding: 31 60287 31
Width: 600
VWidth: 297
Flags: HW
HStem: 389 66<219.36 380.332> 813 66<219.36 380.332>
VStem: 55 66<553.36 714.64> 477 66<553.344 714.656>
AnchorPoint: "Above" 0 0 basechar 0
LayerCount: 2
Back
SplineSet
88 634 m 132
 88 689.333333333 109.5 738.5 152.5 781.5 c 132
 195.5 824.5 244.666666667 846 300 846 c 132
 355.333333333 846 404.166666667 824.5 446.5 781.5 c 132
 488.833333333 738.5 510 689.333333333 510 634 c 132
 510 578.666666667 488.833333333 529.5 446.5 486.5 c 132
 404.166666667 443.5 355.333333333 422 300 422 c 132
 244.666666667 422 195.5 443.5 152.5 486.5 c 132
 109.5 529.5 88 578.666666667 88 634 c 132
EndSplineSet
Fore
SplineSet
121 634 m 128
 121 587.779365039 139.278174593 546.390872965 175.834523779 509.834523779 c 128
 212.390872965 473.278174593 253.779365039 455 300 455 c 128
 346.119791289 455 387.114422255 473.217172098 422.983892898 509.651516295 c 0
 458.994630966 546.2293526 477 587.678847169 477 634 c 128
 477 680.321152831 458.994630966 721.7706474 422.983892898 758.348483705 c 0
 387.114422255 794.782827902 346.119791289 813 300 813 c 128
 253.779365039 813 212.390872965 794.721825407 175.834523779 758.165476221 c 128
 139.278174593 721.609127035 121 680.220634961 121 634 c 128
55 634 m 128
 55 698.446031705 79.721825407 755.390872965 129.165476221 804.834523779 c 128
 178.609127035 854.278174593 235.553968295 879 300 879 c 128
 364.546875378 879 421.218911079 854.217172098 470.016107102 804.651516295 c 0
 518.672035701 755.2293526 543 698.345513835 543 634 c 128
 543 569.654486165 518.672035701 512.7706474 470.016107102 463.348483705 c 0
 421.218911079 413.782827902 364.546875378 389 300 389 c 128
 235.553968295 389 178.609127035 413.721825407 129.165476221 463.165476221 c 128
 79.721825407 512.609127035 55 569.553968295 55 634 c 128
EndSplineSet
Substitution2: "Single Substitution lookup 77 subtable" denpabu.cvc.1
Substitution2: "Single Substitution lookup 75 subtable" denpabu.cvc.3
Substitution2: "Single Substitution lookup 66 subtable" denpabu.ccv.1
EndChar

StartChar: ebu.cv
Encoding: 42 -1 32
Width: 600
VWidth: 230
Flags: HW
HStem: -133 21G<67 133> 67 66<133 533> 313 20G<67 133>
VStem: 67 66<-133 67 133 333>
AnchorPoint: "Above" 0 0 mark 0
LayerCount: 2
Back
SplineSet
100 300 m 29
 100 -100 l 1053
500 100 m 29
 100 100 l 1029
EndSplineSet
Fore
SplineSet
533 100 m 1
 533 67 l 1
 500 67 l 1
 133 67 l 1
 133 -100 l 1
 133 -133 l 1
 100 -133 l 1
 67 -133 l 1
 67 -100 l 1
 67 67 l 1
 67 100 l 1
 67 133 l 1
 67 300 l 1
 67 333 l 1
 100 333 l 1
 133 333 l 1
 133 300 l 1
 133 133 l 1
 500 133 l 1
 533 133 l 1
 533 100 l 1
EndSplineSet
Substitution2: "Single Substitution lookup 69 subtable" ebu.ccv
Substitution2: "Single Substitution lookup 73 subtable" ebu.cvc
EndChar

StartChar: obu.cv
Encoding: 43 -1 33
Width: 600
VWidth: 230
Flags: HW
HStem: -133 21G<467 533> 67 66<67 467> 313 20G<467 533>
VStem: 467 66<-133 67 133 333>
AnchorPoint: "Above" 0 0 mark 0
LayerCount: 2
Back
SplineSet
100 100 m 29
 500 100 l 1053
500 300 m 29
 500 -100 l 1053
EndSplineSet
Fore
SplineSet
500 333 m 1
 533 333 l 1
 533 300 l 1
 533 133 l 1
 533 100 l 1
 533 67 l 1
 533 -100 l 1
 533 -133 l 1
 500 -133 l 1
 467 -133 l 1
 467 -100 l 1
 467 67 l 1
 100 67 l 1
 67 67 l 1
 67 100 l 1
 67 133 l 1
 100 133 l 1
 467 133 l 1
 467 300 l 1
 467 333 l 1
 500 333 l 1
EndSplineSet
Substitution2: "Single Substitution lookup 73 subtable" obu.cvc
Substitution2: "Single Substitution lookup 69 subtable" obu.ccv
EndChar

StartChar: ibu.cv
Encoding: 44 -1 34
Width: 600
VWidth: 230
Flags: HW
HStem: -133 21G<67 133> 267 66<133 533>
VStem: 67 66<-133 267>
AnchorPoint: "Above" 0 0 mark 0
LayerCount: 2
Back
SplineSet
500 300 m 29
 100 300 l 29
 100 -100 l 1053
EndSplineSet
Fore
SplineSet
533 300 m 1
 533 267 l 1
 500 267 l 1
 133 267 l 1
 133 -100 l 1
 133 -133 l 1
 100 -133 l 1
 67 -133 l 1
 67 -100 l 1
 67 300 l 2
 67 308 70.1666666667 315.5 76.5 322.5 c 128
 82.8333333333 329.5 90.6666666667 333 100 333 c 2
 500 333 l 1
 533 333 l 1
 533 300 l 1
EndSplineSet
Substitution2: "Single Substitution lookup 73 subtable" ibu.cvc
Substitution2: "Single Substitution lookup 69 subtable" ibu.ccv
EndChar

StartChar: zy.cvc.1
Encoding: 35 -1 42
Width: 1133
VWidth: 230
Flags: HW
HStem: 401 66<133 467> 601 66<133 467> 847 20G<67 133 467 533>
VStem: 67 66<467 601 667 867> 467 66<467 601 667 867>
AnchorPoint: "Above" 0 0 basechar 0
LayerCount: 2
Back
SplineSet
493 634 m 29
 100 634 l 1029
100 834 m 29
 100 434 l 13
 500 434 l 29
 500 834 l 1053
EndSplineSet
Fore
SplineSet
100 867 m 1
 133 867 l 1
 133 834 l 1
 133 667 l 1
 467 667 l 1
 467 834 l 1
 467 867 l 1
 500 867 l 1
 533 867 l 1
 533 834 l 1
 533 434 l 2
 533 426 529.833333333 418.5 523.5 411.5 c 128
 517.166666667 404.5 509.333333333 401 500 401 c 2
 100 401 l 2
 92 401 84.5 404.166666667 77.5 410.5 c 128
 70.5 416.833333333 67 424.666666667 67 434 c 2
 67 601 l 1
 67 634 l 1
 67 667 l 1
 67 834 l 1
 67 867 l 1
 100 867 l 1
133 601 m 1
 133 467 l 1
 467 467 l 1
 467 601 l 1
 133 601 l 1
EndSplineSet
EndChar

StartChar: vy.cvc.1
Encoding: 51 -1 52
Width: 1133
VWidth: 230
Flags: HW
HStem: 401 66<133 467> 847 20G<67 133 467 533>
VStem: 67 66<467 867> 467 66<467 867>
AnchorPoint: "Above" 0 0 basechar 0
LayerCount: 2
Back
SplineSet
100 834 m 29
 100 434 l 13
 500 434 l 29
 500 834 l 1053
EndSplineSet
Fore
SplineSet
100 867 m 1
 133 867 l 1
 133 834 l 1
 133 467 l 1
 467 467 l 1
 467 834 l 1
 467 867 l 1
 500 867 l 1
 533 867 l 1
 533 834 l 1
 533 434 l 2
 533 426 529.833333333 418.5 523.5 411.5 c 128
 517.166666667 404.5 509.333333333 401 500 401 c 2
 100 401 l 2
 92 401 84.5 404.166666667 77.5 410.5 c 128
 70.5 416.833333333 67 424.666666667 67 434 c 2
 67 834 l 1
 67 867 l 1
 100 867 l 1
EndSplineSet
EndChar

StartChar: vy.ccv.1
Encoding: 115 -1 71
Width: 1133
VWidth: 230
Flags: HW
HStem: 401 66<133 467> 847 20G<67 133 467 533>
VStem: 67 66<467 867> 467 66<467 867>
AnchorPoint: "Above" 0 0 basechar 0
LayerCount: 2
Back
SplineSet
100 834 m 29
 100 434 l 13
 500 434 l 29
 500 834 l 1053
EndSplineSet
Fore
SplineSet
100 867 m 1
 133 867 l 1
 133 834 l 1
 133 467 l 1
 467 467 l 1
 467 834 l 1
 467 867 l 1
 500 867 l 1
 533 867 l 1
 533 834 l 1
 533 434 l 2
 533 426 529.833333333 418.5 523.5 411.5 c 128
 517.166666667 404.5 509.333333333 401 500 401 c 2
 100 401 l 2
 92 401 84.5 404.166666667 77.5 410.5 c 128
 70.5 416.833333333 67 424.666666667 67 434 c 2
 67 834 l 1
 67 867 l 1
 100 867 l 1
EndSplineSet
EndChar

StartChar: ybu.cv
Encoding: 47 -1 79
Width: 600
VWidth: 230
Flags: HW
HStem: -133 21G<267 333> 67 66<67 267 333 533> 313 20G<267 333>
VStem: 267 66<-133 67 133 333>
AnchorPoint: "Above" 0 0 mark 0
LayerCount: 2
Back
SplineSet
100 100 m 29
 500 100 l 1053
300 300 m 29
 300 -100 l 1053
EndSplineSet
Fore
SplineSet
300 333 m 1
 333 333 l 1
 333 300 l 1
 333 133 l 1
 500 133 l 1
 533 133 l 1
 533 100 l 1
 533 67 l 1
 500 67 l 1
 333 67 l 1
 333 -100 l 1
 333 -133 l 1
 300 -133 l 1
 267 -133 l 1
 267 -100 l 1
 267 67 l 1
 100 67 l 1
 67 67 l 1
 67 100 l 1
 67 133 l 1
 100 133 l 1
 267 133 l 1
 267 300 l 1
 267 333 l 1
 300 333 l 1
EndSplineSet
Substitution2: "Single Substitution lookup 73 subtable" ybu.cvc
Substitution2: "Single Substitution lookup 69 subtable" ybu.ccv
EndChar

StartChar: eibu.cv
Encoding: 58 -1 80
Width: 600
VWidth: 230
Flags: HW
HStem: -133 21G<67 133> 67 66<133 533> 267 66<133 533>
VStem: 67 66<-133 67 133 267>
AnchorPoint: "Above" 0 0 mark 0
LayerCount: 2
Back
SplineSet
500 100 m 29
 100 100 l 1053
500 300 m 29
 100 300 l 29
 100 -100 l 1053
EndSplineSet
Fore
SplineSet
533 300 m 1
 533 267 l 1
 500 267 l 1
 133 267 l 1
 133 133 l 1
 500 133 l 1
 533 133 l 1
 533 100 l 1
 533 67 l 1
 500 67 l 1
 133 67 l 1
 133 -100 l 1
 133 -133 l 1
 100 -133 l 1
 67 -133 l 1
 67 -100 l 1
 67 67 l 1
 67 100 l 1
 67 133 l 1
 67 300 l 2
 67 308 70.1666666667 315.5 76.5 322.5 c 128
 82.8333333333 329.5 90.6666666667 333 100 333 c 2
 500 333 l 1
 533 333 l 1
 533 300 l 1
EndSplineSet
Substitution2: "Single Substitution lookup 73 subtable" eibu.cvc
Substitution2: "Single Substitution lookup 69 subtable" eibu.ccv
EndChar

StartChar: oibu.cv
Encoding: 59 -1 81
Width: 600
VWidth: 230
Flags: HW
HStem: -133 21G<467 533> 67 66<67 467> 267 66<67 467>
VStem: 467 66<-133 67 133 267>
AnchorPoint: "Above" 0 0 mark 0
LayerCount: 2
Back
SplineSet
100 100 m 29
 499 100 l 1052
100 300 m 29
 500 300 l 29
 500 -100 l 1053
EndSplineSet
Fore
SplineSet
67 300 m 1
 67 333 l 1
 100 333 l 1
 500 333 l 2
 509.333333333 333 517.166666667 329.5 523.5 322.5 c 128
 529.833333333 315.5 533 308 533 300 c 2
 533 -100 l 1
 533 -133 l 1
 500 -133 l 1
 467 -133 l 1
 467 -100 l 1
 467 67 l 1
 100 67 l 1
 67 67 l 1
 67 100 l 1
 67 133 l 1
 100 133 l 1
 467 133 l 1
 467 267 l 1
 100 267 l 1
 67 267 l 1
 67 300 l 1
EndSplineSet
Substitution2: "Single Substitution lookup 73 subtable" oibu.cvc
Substitution2: "Single Substitution lookup 69 subtable" oibu.ccv
EndChar

StartChar: aibu.cv
Encoding: 60 -1 82
Width: 600
VWidth: 230
Flags: HW
HStem: -133 21G<67 133> 67 66<133 267 333 533> 313 20G<267 333>
VStem: 67 66<-133 67> 267 66<133 333>
AnchorPoint: "Above" 0 0 mark 0
LayerCount: 2
Back
SplineSet
300 300 m 5
 300 100 l 1053
500 100 m 29
 100 100 l 29
 100 -100 l 1053
EndSplineSet
Fore
SplineSet
533 100 m 1
 533 67 l 1
 500 67 l 1
 333 67 l 1
 300 67 l 1
 267 67 l 1
 133 67 l 1
 133 -100 l 1
 133 -133 l 1
 100 -133 l 1
 67 -133 l 1
 67 -100 l 1
 67 100 l 2
 67 108 70.1666666667 115.5 76.5 122.5 c 128
 82.8333333333 129.5 90.6666666667 133 100 133 c 2
 267 133 l 1
 267 300 l 1
 267 333 l 1
 300 333 l 1
 333 333 l 1
 333 300 l 1
 333 133 l 1
 500 133 l 1
 533 133 l 1
 533 100 l 1
EndSplineSet
Substitution2: "Single Substitution lookup 73 subtable" aibu.cvc
Substitution2: "Single Substitution lookup 69 subtable" aibu.ccv
EndChar

StartChar: aubu.cv
Encoding: 61 -1 83
Width: 600
VWidth: 230
Flags: HW
HStem: -133 21G<467 533> 67 66<67 267 333 467> 313 20G<267 333>
VStem: 267 66<133 333> 467 66<-133 67>
AnchorPoint: "Above" 0 0 mark 0
LayerCount: 2
Back
SplineSet
300 300 m 5
 300 100 l 1053
100 100 m 29
 500 100 l 29
 500 -100 l 1053
EndSplineSet
Fore
SplineSet
67 100 m 1
 67 133 l 1
 100 133 l 1
 267 133 l 1
 267 300 l 1
 267 333 l 1
 300 333 l 1
 333 333 l 1
 333 300 l 1
 333 133 l 1
 500 133 l 2
 509.333333333 133 517.166666667 129.5 523.5 122.5 c 128
 529.833333333 115.5 533 108 533 100 c 2
 533 -100 l 1
 533 -133 l 1
 500 -133 l 1
 467 -133 l 1
 467 -100 l 1
 467 67 l 1
 333 67 l 1
 300 67 l 1
 267 67 l 1
 100 67 l 1
 67 67 l 1
 67 100 l 1
EndSplineSet
Substitution2: "Single Substitution lookup 73 subtable" aubu.cvc
Substitution2: "Single Substitution lookup 69 subtable" aubu.ccv
EndChar

StartChar: ubu.cv
Encoding: 45 -1 84
Width: 600
VWidth: 230
Flags: HW
HStem: -133 21G<467 533> 267 66<67 467>
VStem: 467 66<-133 267>
AnchorPoint: "Above" 0 0 mark 0
LayerCount: 2
Back
SplineSet
100 300 m 29
 500 300 l 29
 500 -100 l 1053
EndSplineSet
Fore
SplineSet
67 300 m 1
 67 333 l 1
 100 333 l 1
 500 333 l 2
 509.333333333 333 517.166666667 329.5 523.5 322.5 c 128
 529.833333333 315.5 533 308 533 300 c 2
 533 -100 l 1
 533 -133 l 1
 500 -133 l 1
 467 -133 l 1
 467 -100 l 1
 467 267 l 1
 100 267 l 1
 67 267 l 1
 67 300 l 1
EndSplineSet
Substitution2: "Single Substitution lookup 73 subtable" ubu.cvc
Substitution2: "Single Substitution lookup 69 subtable" ubu.ccv
EndChar

StartChar: abu.cv
Encoding: 46 -1 85
Width: 600
VWidth: 230
Flags: HW
HStem: -133 66<67 267 333 533> 313 20G<267 333>
VStem: 267 66<-67 333>
AnchorPoint: "Above" 0 0 mark 0
LayerCount: 2
Back
SplineSet
300 300 m 29
 300 -100 l 1053
100 -100 m 29
 500 -100 l 1053
EndSplineSet
Fore
SplineSet
67 -100 m 1
 67 -67 l 1
 100 -67 l 1
 267 -67 l 1
 267 300 l 1
 267 333 l 1
 300 333 l 1
 333 333 l 1
 333 300 l 1
 333 -67 l 1
 500 -67 l 1
 533 -67 l 1
 533 -100 l 1
 533 -133 l 1
 500 -133 l 1
 333 -133 l 1
 300 -133 l 1
 267 -133 l 1
 100 -133 l 1
 67 -133 l 1
 67 -100 l 1
EndSplineSet
Substitution2: "Single Substitution lookup 73 subtable" abu.cvc
Substitution2: "Single Substitution lookup 69 subtable" abu.ccv
EndChar

StartChar: sy.ccv.2
Encoding: 132 -1 89
Width: 1133
VWidth: 230
Flags: HW
HStem: 401 21G<600 666 1000 1066> 601 66<666 1000> 801 66<666 1000>
VStem: 600 66<401 601 667 801> 1000 66<401 601 667 801>
AnchorPoint: "Above" 0 0 mark 0
LayerCount: 2
Back
SplineSet
639 634 m 5
 1033 634 l 1029
1033 434 m 5
 1033 834 l 13
 633 834 l 29
 633 434 l 1053
EndSplineSet
Fore
SplineSet
1033 401 m 1
 1000 401 l 1
 1000 434 l 1
 1000 601 l 1
 666 601 l 1
 666 434 l 1
 666 401 l 1
 633 401 l 1
 600 401 l 1
 600 434 l 1
 600 834 l 2
 600 842 603.166666667 849.5 609.5 856.5 c 128
 615.833333333 863.5 623.666666667 867 633 867 c 2
 1033 867 l 2
 1041 867 1048.5 863.833333333 1055.5 857.5 c 128
 1062.5 851.166666667 1066 843.333333333 1066 834 c 2
 1066 667 l 1
 1066 634 l 1
 1066 601 l 1
 1066 434 l 1
 1066 401 l 1
 1033 401 l 1
1000 667 m 1
 1000 801 l 1
 666 801 l 1
 666 667 l 1
 1000 667 l 1
EndSplineSet
EndChar

StartChar: guillemotleft
Encoding: 160 171 145
Width: 800
VWidth: 230
Flags: HW
LayerCount: 2
Back
SplineSet
586.009765625 503.009765625 m 5
 405.009765625 360.009765625 l 1
 586.009765625 217.009765625 l 1025
405.009765625 503.009765625 m 5
 224.009765625 360.009765625 l 1
 405.009765625 217.009765625 l 1025
EndSplineSet
Fore
SplineSet
430.903571351 523.467302745 m 1
 451.361108471 497.57349702 l 1
 425.467302745 477.115959899 l 1
 277.241979923 360.009765625 l 1
 425.467302745 242.903571351 l 1
 451.361108471 222.44603423 l 1
 430.903571351 196.552228505 l 1
 410.44603423 170.658422779 l 1
 384.552228505 191.115959899 l 1
 203.552228505 334.115959899 l 2
 201.932789905 335.47622677 200.682319237 336.632152304 199.800816502 337.583736499 c 0
 193.355394587 344.541584022 190.508752213 352.864436359 191.260889378 362.552293508 c 128
 192.013026543 372.240150658 196.110139585 380.023909939 203.552228505 385.903571351 c 2
 384.552228505 528.903571351 l 1
 410.44603423 549.361108471 l 1
 430.903571351 523.467302745 l 1
611.903571351 523.467302745 m 1
 632.361108471 497.57349702 l 1
 606.467302745 477.115959899 l 1
 458.241979923 360.009765625 l 1
 606.467302745 242.903571351 l 1
 632.361108471 222.44603423 l 1
 611.903571351 196.552228505 l 1
 591.44603423 170.658422779 l 1
 565.552228505 191.115959899 l 1
 384.552228505 334.115959899 l 2
 382.932789905 335.47622677 381.682319237 336.632152304 380.800816502 337.583736499 c 0
 374.355394587 344.541584022 371.508752213 352.864436359 372.260889378 362.552293508 c 128
 373.013026543 372.240150658 377.110139585 380.023909939 384.552228505 385.903571351 c 2
 565.552228505 528.903571351 l 1
 591.44603423 549.361108471 l 1
 611.903571351 523.467302745 l 1
EndSplineSet
EndChar

StartChar: parenleft
Encoding: 162 40 148
Width: 500
VWidth: 230
Flags: HW
HStem: 857.59 20G<359.231 399.822>
VStem: 71.0098 66<220.728 496.493>
LayerCount: 2
Back
SplineSet
377.009765625 832.009765625 m 24
 373.20601979 829.577341253 368.02887462 826.05949598 361.478330115 821.456229805 c 0
 354.92778561 816.852963631 342.200665372 806.562863817 323.296969402 790.585930362 c 0
 304.393273433 774.608996907 286.345139707 757.729882831 269.152568225 739.948588133 c 0
 251.959996743 722.167293434 232.865512484 699.101626473 211.869115448 670.75158725 c 0
 190.872718412 642.401548027 172.824465107 613.317953721 157.724355534 583.500804332 c 0
 142.62424596 553.683654943 129.896886564 518.98459467 119.542277347 479.403623511 c 0
 109.187668129 439.822652352 104.010164222 399.69136639 104.009765625 359.009765625 c 0
 104.009367028 318.466743729 109.027767497 278.561931051 119.06496703 239.29532759 c 0
 129.102166564 200.028724129 142.146263723 165.216646452 158.197258507 134.859094559 c 0
 174.248253292 104.501542665 191.979563841 75.6793311354 211.391190154 48.3924599695 c 0
 230.802816467 21.1055888036 250.21448264 -2.12698017266 269.626188673 -21.3052469593 c 0
 289.037894706 -40.4835137459 306.769324834 -57.1428187067 322.820479057 -71.2831618417 c 0
 338.87163328 -85.4235049768 351.915969597 -95.9097695162 361.953488008 -102.74195546 c 2
 377.009765625 -112.990234375 l 1025
EndSplineSet
Fore
SplineSet
404.811267225 849.788306308 m 1
 422.589807907 821.986804708 l 1
 394.788306308 804.208264025 l 2
 391.388774068 802.034326693 386.610015688 798.78365684 380.452031168 794.456254465 c 0
 374.704189701 790.417072047 362.753074155 780.725661649 344.598684529 765.382023271 c 128
 326.540397317 750.119608262 309.299677981 733.995636999 292.87652652 717.010109482 c 0
 276.687808211 700.267042784 258.525008615 678.300763586 238.388127731 651.111271887 c 0
 218.498750153 624.255967452 201.424180927 596.749429974 187.164420054 568.591659453 c 0
 173.126386409 540.871718462 161.227546139 508.358397843 151.467899244 471.051697595 c 0
 141.829514366 434.208527 137.010136492 396.861108197 137.009765623 359.009441187 c 128
 137.009394234 321.233824354 141.685129015 284.053312432 151.036969964 247.467905421 c 0
 160.427955992 210.729358655 172.539119897 178.334685793 187.370461678 150.283886834 c 0
 202.741973999 121.211453054 219.712208347 93.6240700208 238.281164721 67.5217377343 c 0
 256.586155456 41.7904612397 274.765478026 20.0065496558 292.819132431 2.1700029825 c 0
 311.783464161 -16.5662694877 329.055260767 -32.7967191762 344.634522248 -46.521346083 c 0
 359.656221194 -59.7547855367 371.618753482 -69.4016092702 380.522119112 -75.4618172837 c 2
 395.578396729 -85.7100961987 l 1
 422.858534905 -104.278727303 l 1
 404.289903801 -131.558865479 l 1
 385.721272697 -158.839003655 l 1
 358.441134521 -140.270372551 l 1
 343.384856904 -130.022093636 l 2
 332.213185711 -122.417929762 318.087045365 -111.092224417 301.006435866 -96.0449776004 c 0
 284.483388901 -81.4889182372 266.29232525 -64.4007580041 246.433244915 -44.7804969011 c 0
 225.663487255 -24.2605100011 205.019477479 0.4207163675 184.501215587 29.2631822047 c 0
 164.246919334 57.7345922499 145.754532584 87.7916322763 129.024055336 119.434302284 c 0
 111.753407549 152.098607112 97.7763771361 189.328089604 87.0929640963 231.122749759 c 0
 76.3704059789 273.070549669 71.0093398223 315.699663104 71.0097656266 359.010090063 c 0
 71.0101919509 402.521624584 76.545821892 445.436777705 87.6166554501 487.755549427 c 0
 98.56622699 529.610791496 112.122105511 566.495591424 128.284291014 598.409949211 c 0
 144.224749287 629.886477468 163.246686671 660.547128602 185.350103165 690.391902613 c 0
 207.206016353 719.902489362 227.232185275 744.067544085 245.42860993 762.887066784 c 0
 263.390601433 781.464128663 282.246149548 799.098385553 301.995254275 815.789837453 c 128
 321.648256589 832.400065984 335.151381518 843.288855215 342.504629062 848.456205145 c 0
 349.447733553 853.33533512 355.023265513 857.120355813 359.231224942 859.811267225 c 2
 387.032726542 877.589807907 l 1
 404.811267225 849.788306308 l 1
EndSplineSet
EndChar

StartChar: denpabu_iy
Encoding: 174 -1 149
Width: 810
VWidth: 2427
Flags: HW
HStem: 252.504 66<164.878 713.196> 453.01 66<394.966 541.054> 797.01 66<394.966 541.054>
VStem: 98.8779 66<317.988 860.812> 267.01 66<582.005 734.015> 603.01 66<582.005 734.015>
AnchorPoint: "Above" 0 0 basechar 0
LayerCount: 2
Back
SplineSet
131.877929688 827.811523438 m 5
 131.877929688 284.955078125 l 1
 680.229492188 285.50390625 l 1025
300.009765625 658.009765625 m 0
 300.009765625 705.534456983 316.390789721 746.082296489 349.152837914 779.653284144 c 0
 381.914886107 813.224271798 421.53386201 830.009765625 468.009765625 830.009765625 c 0
 514.48566924 830.009765625 554.104645143 813.224271798 586.866693336 779.653284144 c 0
 619.628741529 746.082296489 636.009765625 705.534456983 636.009765625 658.009765625 c 0
 636.009765625 610.485074267 619.628741529 569.937234761 586.866693336 536.366247106 c 0
 554.104645143 502.795259452 514.48566924 486.009765625 468.009765625 486.009765625 c 0
 421.53386201 486.009765625 381.914886107 502.795259452 349.152837914 536.366247106 c 0
 316.390789721 569.937234761 300.009765625 610.485074267 300.009765625 658.009765625 c 0
EndSplineSet
Fore
SplineSet
267.009765625 658.009765625 m 128
 267.009765625 714.490394897 286.518344718 762.720981937 325.535502903 802.701526745 c 0
 364.77218844 842.907019332 412.263609347 863.009765625 468.009765625 863.009765625 c 128
 523.755921903 863.009765625 571.24734281 842.907019332 610.484028347 802.701526745 c 0
 649.501186532 762.720981937 669.009765625 714.490394897 669.009765625 658.009765625 c 128
 669.009765625 601.529136353 649.501186532 553.298549313 610.484028347 513.318004505 c 0
 571.24734281 473.112511918 523.755921903 453.009765625 468.009765625 453.009765625 c 128
 412.263609347 453.009765625 364.77218844 473.112511918 325.535502903 513.318004505 c 0
 286.518344718 553.298549313 267.009765625 601.529136353 267.009765625 658.009765625 c 128
333.009765625 658.009765625 m 128
 333.009765625 619.441012181 346.263234725 586.575920208 372.770172925 559.414489707 c 0
 399.057583774 532.478006986 430.804114674 519.009765625 468.009765625 519.009765625 c 128
 505.215416576 519.009765625 536.961947476 532.478006986 563.249358325 559.414489707 c 0
 589.756296525 586.575920208 603.009765625 619.441012181 603.009765625 658.009765625 c 128
 603.009765625 696.578519069 589.756296525 729.443611042 563.249358325 756.605041543 c 0
 536.961947476 783.541524264 505.215416576 797.009765625 468.009765625 797.009765625 c 128
 430.804114674 797.009765625 399.057583774 783.541524264 372.770172925 756.605041543 c 0
 346.263234725 729.443611042 333.009765625 696.578519069 333.009765625 658.009765625 c 128
131.877929688 860.811523438 m 1
 164.877929688 860.811523438 l 1
 164.877929688 827.811523438 l 1
 164.877929688 317.988123333 l 1
 680.196463525 318.503889721 l 1
 713.196446996 318.536918384 l 1
 713.229475659 285.536934913 l 1
 713.262504322 252.536951442 l 1
 680.262520851 252.503922779 l 1
 131.910958351 251.955094654 l 2
 124.113232643 251.947290151 116.658296439 255.102187671 109.546149738 261.419787214 c 128
 102.434003038 267.737386757 98.877929688 275.582483728 98.877929688 284.955078125 c 2
 98.877929688 827.811523438 l 1
 98.877929688 860.811523438 l 1
 131.877929688 860.811523438 l 1
EndSplineSet
Ligature2: "Vdenpabu subtable" denpabu iy
EndChar

StartChar: denpabu_uy
Encoding: 175 -1 150
Width: 810
VWidth: 2427
Flags: HW
HStem: 252.504 66<98.8779 649.428> 452.01 66<269.966 416.054> 796.01 66<269.966 416.054>
VStem: 142.01 66<581.005 733.015> 478.01 66<581.005 733.015> 649.428 66<318.504 867.405>
AnchorPoint: "Above" 0 0 basechar 0
LayerCount: 2
Back
SplineSet
131.877929688 285.50390625 m 1
 682.427734375 285.50390625 l 1
 682.427734375 834.405273438 l 1025
175.009765625 657.009765625 m 0
 175.009765625 704.534456983 191.390789721 745.082296489 224.152837914 778.653284144 c 0
 256.914886107 812.224271798 296.53386201 829.009765625 343.009765625 829.009765625 c 0
 389.48566924 829.009765625 429.104645143 812.224271798 461.866693336 778.653284144 c 0
 494.628741529 745.082296489 511.009765625 704.534456983 511.009765625 657.009765625 c 0
 511.009765625 609.485074267 494.628741529 568.937234761 461.866693336 535.366247106 c 0
 429.104645143 501.795259452 389.48566924 485.009765625 343.009765625 485.009765625 c 0
 296.53386201 485.009765625 256.914886107 501.795259452 224.152837914 535.366247106 c 0
 191.390789721 568.937234761 175.009765625 609.485074267 175.009765625 657.009765625 c 0
EndSplineSet
Fore
SplineSet
142.009765625 657.009765625 m 128
 142.009765625 713.490394897 161.518344718 761.720981937 200.535502903 801.701526745 c 0
 239.77218844 841.907019332 287.263609347 862.009765625 343.009765625 862.009765625 c 128
 398.755921903 862.009765625 446.24734281 841.907019332 485.484028347 801.701526745 c 0
 524.501186532 761.720981937 544.009765625 713.490394897 544.009765625 657.009765625 c 128
 544.009765625 600.529136353 524.501186532 552.298549313 485.484028347 512.318004505 c 0
 446.24734281 472.112511918 398.755921903 452.009765625 343.009765625 452.009765625 c 128
 287.263609347 452.009765625 239.77218844 472.112511918 200.535502903 512.318004505 c 0
 161.518344718 552.298549313 142.009765625 600.529136353 142.009765625 657.009765625 c 128
208.009765625 657.009765625 m 128
 208.009765625 618.441012181 221.263234725 585.575920208 247.770172925 558.414489707 c 0
 274.057583774 531.478006986 305.804114674 518.009765625 343.009765625 518.009765625 c 128
 380.215416576 518.009765625 411.961947476 531.478006986 438.249358325 558.414489707 c 0
 464.756296525 585.575920208 478.009765625 618.441012181 478.009765625 657.009765625 c 128
 478.009765625 695.578519069 464.756296525 728.443611042 438.249358325 755.605041543 c 0
 411.961947476 782.541524264 380.215416576 796.009765625 343.009765625 796.009765625 c 128
 305.804114674 796.009765625 274.057583774 782.541524264 247.770172925 755.605041543 c 0
 221.263234725 728.443611042 208.009765625 695.578519069 208.009765625 657.009765625 c 128
98.877929688 285.50390625 m 1
 98.877929688 318.50390625 l 1
 131.877929688 318.50390625 l 1
 649.427734375 318.50390625 l 1
 649.427734375 834.405273438 l 1
 649.427734375 867.405273438 l 1
 682.427734375 867.405273438 l 1
 715.427734375 867.405273438 l 1
 715.427734375 834.405273438 l 1
 715.427734375 285.50390625 l 2
 715.427734375 277.727697155 712.270449662 270.283644882 705.955880236 263.171749429 c 128
 699.641310809 256.059853976 691.798595522 252.50390625 682.427734375 252.50390625 c 2
 131.877929688 252.50390625 l 1
 98.877929688 252.50390625 l 1
 98.877929688 285.50390625 l 1
EndSplineSet
Ligature2: "Vdenpabu subtable" denpabu uy
EndChar

StartChar: .notdef
Encoding: 257 -1 162
Width: 0
VWidth: 230
Flags: HW
LayerCount: 2
Back
SplineSet
405.009765625 -112.990234375 m 5
 405.009765625 10.009765625 l 1025
54 210.009765625 m 29
 55.009765625 -112.990234375 l 1
 755.009765625 -112.990234375 l 1025
EndSplineSet
EndChar

StartChar: NameMe.192
Encoding: 258 -1 163
Width: 1000
VWidth: 0
Flags: H
LayerCount: 2
Back
SplineSet
165.009765625 235 m 5
 566.009765625 235 l 1
 566 -32 l 1
 165 -32 l 1
 165.009765625 235 l 5
165 102 m 5
 566 102 l 1025
33 367.009765625 m 25
 700 367.009765625 l 1025
165.009765625 767 m 1
 566.009765625 767 l 1
 566 500 l 1
 165 500 l 1
 165.009765625 767 l 1
165 634 m 1
 566 634 l 1025
EndSplineSet
EndChar

StartChar: zy_dy
Encoding: 259 -1 164
Width: 600
VWidth: 230
Flags: HW
HStem: 401 66<133 267 333 533> 601 66<133 267 333 467> 801 66<333 533>
VStem: 67 66<467 601 667 867> 267 66<467 601 667 801>
CounterMasks: 1 e0
LayerCount: 2
Back
SplineSet
300 434.5 m 28
 300 834 l 29
 500 834 l 1053
500 434 m 5
 100 434 l 5
 100 834 l 1053
434 634 m 29
 100 634 l 1029
EndSplineSet
Fore
SplineSet
467 634 m 1
 467 601 l 1
 434 601 l 1
 333 601 l 1
 333 467 l 1
 500 467 l 1
 533 467 l 1
 533 434 l 1
 533 401 l 1
 500 401 l 1
 100 401 l 2
 90.6666666667 401 82.8333333333 404.5 76.5 411.5 c 128
 70.1666666667 418.5 67 426 67 434 c 2
 67 601 l 1
 67 634 l 1
 67 667 l 1
 67 834 l 1
 67 867 l 1
 100 867 l 1
 133 867 l 1
 133 834 l 1
 133 667 l 1
 267 667 l 1
 267 834 l 2
 267 843.333333333 270.5 851.166666667 277.5 857.5 c 128
 284.5 863.833333333 292 867 300 867 c 2
 500 867 l 1
 533 867 l 1
 533 834 l 1
 533 801 l 1
 500 801 l 1
 333 801 l 1
 333 667 l 1
 434 667 l 1
 467 667 l 1
 467 634 l 1
133 601 m 1
 133 467 l 1
 267 467 l 1
 267 601 l 1
 133 601 l 1
EndSplineSet
EndChar

StartChar: zy_vy
Encoding: 195 -1 165
Width: 600
VWidth: 0
Flags: HW
HStem: 401 66<133 267 333 410.943> 601 66<133 267> 847 20G<67 133 267 333 552.437 593.865>
VStem: 67 66<467 601 667 867> 267 66<467 601 667 867>
AnchorPoint: "Above" 0 0 basechar 0
LayerCount: 2
Back
SplineSet
300 834 m 29
 300 434.5 l 1052
574 832 m 4
 541.333333333 788.666666667 511.333333333 728 484 650 c 132
 456.666666667 572 442 500 440 434 c 5
 100 434 l 5
 100 834 l 1053
293 634 m 29
 100 634 l 1029
EndSplineSet
Fore
SplineSet
593.864804904 858.351271812 m 1
 620.216076716 838.486466908 l 1
 600.351271812 812.135195096 l 2
 569.746456702 771.53697097 541.343757328 713.854099325 515.143173689 639.08658016 c 128
 488.934614402 564.296301219 474.881842809 495.60092744 472.984858912 433.000458821 c 0
 472.717151295 424.166107472 469.315621987 416.624109831 462.780270988 410.374465899 c 128
 456.244919989 404.124821966 448.651496326 401 440 401 c 2
 100 401 l 2
 90.6666666667 401 82.8333333333 404.5 76.5 411.5 c 128
 70.1666666667 418.5 67 426 67 434 c 2
 67 601 l 1
 67 634 l 1
 67 667 l 1
 67 834 l 1
 67 867 l 1
 100 867 l 1
 133 867 l 1
 133 834 l 1
 133 667 l 1
 267 667 l 1
 267 834 l 1
 267 867 l 1
 300 867 l 1
 333 867 l 1
 333 834 l 1
 333 467 l 1
 408.881836621 467 l 1
 414.134928488 527.606407192 428.793258385 592.244213805 452.856826311 660.91341984 c 0
 481.322909339 742.145900675 512.920209965 805.796362363 547.648728188 851.864804904 c 2
 567.513533092 878.216076716 l 1
 593.864804904 858.351271812 l 1
133 601 m 1
 133 467 l 1
 267 467 l 1
 267 601 l 1
 133 601 l 1
EndSplineSet
EndChar

StartChar: NameMe.210
Encoding: 210 -1 166
Width: 600
VWidth: 0
Flags: HW
HStem: 401 66<67 267 333 533> 601 66<333 467> 801 66<67 267 333 467>
VStem: 267 66<467 601 667 801> 467 66<667 801>
CounterMasks: 1 e0
LayerCount: 2
Back
SplineSet
300 834 m 5
 500 834 l 5
 500 634 l 5
 300 634 l 1029
100 434 m 5
 500 434 l 1029
100 834 m 5
 300 834 l 5
 300 434 l 1029
EndSplineSet
Fore
SplineSet
67 834 m 1
 67 867 l 1
 100 867 l 1
 267 867 l 1
 300 867 l 1
 500 867 l 2
 509.333333333 867 517.166666667 863.5 523.5 856.5 c 128
 529.833333333 849.5 533 842 533 834 c 2
 533 634 l 2
 533 624.666666667 529.5 616.833333333 522.5 610.5 c 128
 515.5 604.166666667 508 601 500 601 c 2
 333 601 l 1
 333 467 l 1
 500 467 l 1
 533 467 l 1
 533 434 l 1
 533 401 l 1
 500 401 l 1
 333 401 l 1
 300 401 l 1
 267 401 l 1
 100 401 l 1
 67 401 l 1
 67 434 l 1
 67 467 l 1
 100 467 l 1
 267 467 l 1
 267 601 l 1
 267 634 l 1
 267 667 l 1
 267 801 l 1
 100 801 l 1
 67 801 l 1
 67 834 l 1
333 801 m 1
 333 667 l 1
 467 667 l 1
 467 801 l 1
 333 801 l 1
EndSplineSet
EndChar

StartChar: NameMe.242
Encoding: 242 -1 167
Width: 600
VWidth: 0
Flags: HW
HStem: 389.726 21G<475.242 514.758> 401 66<67 279.605> 801 66<67 279.605> 858.274 20G<475.242 514.758>
LayerCount: 2
Back
SplineSet
300 812 m 29
 300 454 l 1053
500 434 m 5
 455.845350119 585.446981514 403.234875539 743.620194639 300 834 c 5
 100 834 l 1029
500 834 m 5
 455.418644037 696.193052235 401.646231 507.274530895 300 434 c 5
 100 434 l 1053
EndSplineSet
Fore
SplineSet
508.003675626 866.014702505 m 1x60
 540.018378131 858.011026879 l 1
 532.014702505 825.996324374 l 2
 531.181002103 822.661522767 526.159903447 806.499265715 516.951406536 777.509553218 c 0
 507.854466679 748.871038853 502.086439753 731.067333109 499.64732576 724.098435984 c 0
 497.307629938 717.413590777 491.638859826 701.240919837 482.641015425 675.580423163 c 0
 476.51558021 658.111589401 471.385284008 644.114684053 467.250126819 633.589707118 c 1
 489.139328184 578.408106367 510.610147587 514.978037493 531.662585026 443.299500497 c 2
 540.962085523 411.636915471 l 1
 509.299500497 402.337414974 l 1
 477.636915471 393.037914477 l 1
 468.337414974 424.700499503 l 2
 455.353895935 468.906290516 442.243872213 509.794949331 429.007343806 547.36647595 c 1
 423.77218478 536.782472855 418.883346543 527.921350458 414.340829095 520.783108758 c 0
 407.306986219 509.729927095 398.939657907 496.676842838 389.238844158 481.623855987 c 0
 378.397228882 464.800659869 367.222237722 450.443072171 355.713870678 438.551092892 c 128
 344.278224143 426.734258139 332.050449091 416.230580679 319.030545521 407.040060512 c 0
 313.326043926 403.013353504 306.982528752 401 300 401 c 2
 100 401 l 1
 67 401 l 1
 67 434 l 1
 67 467 l 1
 100 467 l 1
 267 467 l 1
 267 801 l 1
 100 801 l 1
 67 801 l 1
 67 834 l 1
 67 867 l 1
 100 867 l 1
 300 867 l 2
 308.240745693 867 315.467506784 864.29300453 321.680283272 858.879013591 c 0
 364.018760784 821.984054616 399.629775827 775.916644633 428.513328401 720.67678364 c 1
 432.885432234 733.148179315 435.831880847 741.556439441 437.35267424 745.901564016 c 0
 439.580226913 752.266000225 445.145533321 769.46229448 454.048593464 797.490446782 c 0
 462.364966973 823.671622643 467.024679395 838.56594324 468.027730732 842.173408573 c 2
 475.988973121 874.018378131 l 1
 508.003675626 866.014702505 l 1x60
395.712739096 634.240967578 m 1
 391.784324547 643.604922019 387.845113313 652.685771729 383.895105392 661.483516706 c 0
 369.23535029 694.134789434 352.270315159 723.472952038 333 749.498004518 c 1
 333 516.200934708 l 2
 333.253718576 516.590706221 333.50743719 516.982442656 333.761155842 517.376144013 c 0
 343.393675427 532.323157162 351.693013781 545.270072905 358.659170905 556.216891242 c 0
 364.746008336 565.781921491 372.115220683 580.451964918 380.766807948 600.227021523 c 0
 386.77627944 613.962956362 391.758256489 625.30093838 395.712739096 634.240967578 c 1
EndSplineSet
EndChar

StartChar: NameMe.212
Encoding: 212 -1 168
Width: 600
VWidth: 0
Flags: HW
HStem: 401 66<333 533> 601 66<333 467> 801 66<133 267 333 467>
VStem: 67 66<401 801> 267 66<467 601 667 801> 467 66<667 801>
CounterMasks: 1 fc
LayerCount: 2
Back
SplineSet
300 634 m 5
 500 634 l 5
 500 834 l 5
 300 834 l 5
 100 834 l 5
 100 434 l 1052
500 434 m 5
 300 434 l 5
 300 834 l 1029
EndSplineSet
Fore
SplineSet
533 434 m 1
 533 401 l 1
 500 401 l 1
 300 401 l 2
 290.666666667 401 282.833333333 404.5 276.5 411.5 c 128
 270.166666667 418.5 267 426 267 434 c 2
 267 601 l 1
 267 634 l 1
 267 667 l 1
 267 801 l 1
 133 801 l 1
 133 434 l 1
 133 401 l 1
 100 401 l 1
 67 401 l 1
 67 434 l 1
 67 834 l 2
 67 842 70.1666666667 849.5 76.5 856.5 c 128
 82.8333333333 863.5 90.6666666667 867 100 867 c 2
 267 867 l 1
 300 867 l 1
 333 867 l 1
 500 867 l 2
 508 867 515.5 863.833333333 522.5 857.5 c 128
 529.5 851.166666667 533 843.333333333 533 834 c 2
 533 634 l 2
 533 626 529.833333333 618.5 523.5 611.5 c 128
 517.166666667 604.5 509.333333333 601 500 601 c 2
 333 601 l 1
 333 467 l 1
 500 467 l 1
 533 467 l 1
 533 434 l 1
333 801 m 1
 333 667 l 1
 467 667 l 1
 467 801 l 1
 333 801 l 1
EndSplineSet
EndChar

StartChar: NameMe.244
Encoding: 244 -1 169
Width: 600
VWidth: 0
Flags: HW
HStem: 401 9.72585G<67 133 285.242 324.758 475.242 514.758> 801 66<133 279.605> 858.274 20G<475.242 514.758>
VStem: 67 66<401 801>
LayerCount: 2
Back
SplineSet
500 434 m 5
 455.845350119 585.446981514 403.234875539 743.620194639 300 834 c 5
 100 834 l 5
 100 434 l 1052
500 834 m 5
 455.418644037 696.193052235 401.646231 507.274530895 300 434 c 13
 300 801 l 1053
EndSplineSet
Fore
SplineSet
508.003675626 866.014702505 m 1xd0
 540.018378131 858.011026879 l 1
 532.014702505 825.996324374 l 2
 531.181002103 822.661522767 526.159903447 806.499265715 516.951406536 777.509553218 c 0
 507.854466679 748.871038853 502.086439753 731.067333109 499.64732576 724.098435984 c 0
 497.307629938 717.413590777 491.638859826 701.240919837 482.641015425 675.580423163 c 0
 476.51558021 658.111589401 471.385284008 644.114684053 467.250126819 633.589707118 c 1
 489.139328184 578.408106367 510.610147587 514.978037493 531.662585026 443.299500497 c 2
 540.962085523 411.636915471 l 1
 509.299500497 402.337414974 l 1
 477.636915471 393.037914477 l 1
 468.337414974 424.700499503 l 2
 455.353895935 468.906290516 442.243872213 509.794949331 429.007343806 547.36647595 c 1
 423.77218478 536.782472855 418.883346543 527.921350458 414.340829095 520.783108758 c 0
 407.306986219 509.729927095 398.939657907 496.676842838 389.238844158 481.623855987 c 0
 378.397228882 464.800659869 367.222237722 450.443072171 355.713870678 438.551092892 c 128
 344.278224143 426.734258139 332.050449091 416.230580679 319.030545521 407.040060512 c 0
 311.282041146 401.570528013 302.656024955 399.848584782 293.152496947 401.874230819 c 128
 283.648968939 403.899876857 276.474831159 408.989571439 271.630083607 417.143314565 c 0
 268.543361202 422.338289395 267 427.95718454 267 434 c 2
 267 801 l 1
 133 801 l 1
 133 434 l 1
 133 401 l 1
 100 401 l 1
 67 401 l 1
 67 434 l 1
 67 834 l 2
 67 842 70.1666666667 849.5 76.5 856.5 c 128
 82.8333333333 863.5 90.6666666667 867 100 867 c 2
 300 867 l 2
 308.240745693 867 315.467506784 864.29300453 321.680283272 858.879013591 c 0
 364.018760784 821.984054616 399.629775827 775.916644633 428.513328401 720.67678364 c 1
 432.885432234 733.148179315 435.831880847 741.556439441 437.35267424 745.901564016 c 0
 439.580226913 752.266000225 445.145533321 769.46229448 454.048593464 797.490446782 c 0
 462.364966973 823.671622643 467.024679395 838.56594324 468.027730732 842.173408573 c 2
 475.988973121 874.018378131 l 1
 508.003675626 866.014702505 l 1xd0
333 749.498004518 m 1
 333 516.200493868 l 2
 333.209759583 516.522347044 333.463478197 516.914230426 333.761155842 517.376144013 c 0
 343.393675427 532.323157162 351.693013781 545.270072905 358.659170905 556.216891242 c 0
 364.746008336 565.781921491 372.115220683 580.451964918 380.766807948 600.227021523 c 0
 386.77627944 613.962956362 391.758256489 625.30093838 395.712739096 634.240967578 c 1
 391.784324547 643.604922019 387.845113313 652.685771729 383.895105392 661.483516706 c 0
 369.23535029 694.134789434 352.270315159 723.472952038 333 749.498004518 c 1
EndSplineSet
EndChar

StartChar: NameMe.209
Encoding: 209 -1 170
Width: 600
VWidth: 0
Flags: HW
HStem: 401 66<133 267 333 533> 601 66<333 467> 801 66<133 467>
VStem: 67 66<467 801> 267 66<467 601> 467 66<667 801>
CounterMasks: 1 fc
LayerCount: 2
Back
SplineSet
300 834 m 5
 500 834 l 5
 500 634 l 5
 300 634 l 13
 300 434 l 1053
300 834 m 5
 100 834 l 5
 100 434 l 5
 500 434 l 1029
EndSplineSet
Fore
SplineSet
267 801 m 1
 133 801 l 1
 133 467 l 1
 267 467 l 1
 267 634 l 2
 267 642 270.166666667 649.5 276.5 656.5 c 128
 282.833333333 663.5 290.666666667 667 300 667 c 2
 467 667 l 1
 467 801 l 1
 333 801 l 1
 300 801 l 1
 267 801 l 1
267 401 m 1
 100 401 l 2
 92 401 84.5 404.166666667 77.5 410.5 c 128
 70.5 416.833333333 67 424.666666667 67 434 c 2
 67 834 l 2
 67 842 70.1666666667 849.5 76.5 856.5 c 128
 82.8333333333 863.5 90.6666666667 867 100 867 c 2
 267 867 l 1
 300 867 l 1
 333 867 l 1
 500 867 l 2
 509.333333333 867 517.166666667 863.5 523.5 856.5 c 128
 529.833333333 849.5 533 842 533 834 c 2
 533 634 l 2
 533 624.666666667 529.5 616.833333333 522.5 610.5 c 128
 515.5 604.166666667 508 601 500 601 c 2
 333 601 l 1
 333 467 l 1
 500 467 l 1
 533 467 l 1
 533 434 l 1
 533 401 l 1
 500 401 l 1
 333 401 l 1
 300 401 l 1
 267 401 l 1
EndSplineSet
EndChar

StartChar: zy_by
Encoding: 227 -1 171
Width: 600
VWidth: 0
Flags: HW
HStem: 401 66<133 267 333 533> 601 66<133 267> 801 66<333 533>
VStem: 67 66<467 601 667 867> 267 66<467 601 667 801>
CounterMasks: 1 e0
LayerCount: 2
Back
SplineSet
300 434.5 m 28
 300 834 l 29
 500 834 l 1053
500 434 m 5
 100 434 l 5
 100 834 l 1053
293 634 m 29
 100 634 l 1029
EndSplineSet
Fore
SplineSet
533 434 m 1
 533 401 l 1
 500 401 l 1
 100 401 l 2
 90.6666666667 401 82.8333333333 404.5 76.5 411.5 c 128
 70.1666666667 418.5 67 426 67 434 c 2
 67 601 l 1
 67 634 l 1
 67 667 l 1
 67 834 l 1
 67 867 l 1
 100 867 l 1
 133 867 l 1
 133 834 l 1
 133 667 l 1
 267 667 l 1
 267 834 l 2
 267 843.333333333 270.5 851.166666667 277.5 857.5 c 128
 284.5 863.833333333 292 867 300 867 c 2
 500 867 l 1
 533 867 l 1
 533 834 l 1
 533 801 l 1
 500 801 l 1
 333 801 l 1
 333 467 l 1
 500 467 l 1
 533 467 l 1
 533 434 l 1
133 601 m 1
 133 467 l 1
 267 467 l 1
 267 601 l 1
 133 601 l 1
EndSplineSet
EndChar

StartChar: zy_gy
Encoding: 291 -1 172
Width: 600
VWidth: 0
Flags: HW
HStem: 401 66.0825<133 267> 601 66<133 267> 847 20G<67 133 267 333>
VStem: 67 66<467.083 601 667 867> 267 66<467.418 552.901 713.669 867>
LayerCount: 2
Back
SplineSet
500 834 m 29
 299 633 l 29
 500 434 l 1053
100 834 m 29
 100 434 l 5
 300 434.5 l 28
 300 834 l 1053
293 634 m 29
 100 634 l 1029
EndSplineSet
Fore
SplineSet
100 867 m 1
 133 867 l 1
 133 834 l 1
 133 667 l 1
 267 667 l 1
 267 834 l 1
 267 867 l 1
 300 867 l 1
 333 867 l 1
 333 834 l 1
 333 713.669047558 l 1
 476.665476221 857.334523779 l 1
 500 880.669047558 l 1
 523.334523779 857.334523779 l 1
 546.669047558 834 l 1
 523.334523779 810.665476221 l 1
 345.786011857 633.116964299 l 1
 523.217560943 457.450903264 l 1
 546.668464206 434.233342321 l 1
 523.450903264 410.782439057 l 1
 500.233342321 387.331535794 l 1
 476.782439057 410.549096736 l 1
 333 552.900864758 l 1
 333 434.5 l 2
 333 426.030336829 329.794386051 418.418639813 323.383158153 411.664908954 c 128
 316.971930254 404.911178095 309.205044117 401.522909486 300.082499742 401.500103125 c 2
 100.082499742 401.000103125 l 2
 92.2525497345 400.98052825 84.7813122757 404.131823358 77.6687873654 410.45398845 c 128
 70.5562624551 416.776153542 67 424.624824059 67 434 c 2
 67 601 l 1
 67 634 l 1
 67 667 l 1
 67 834 l 1
 67 867 l 1
 100 867 l 1
267 601 m 1
 133 601 l 1
 133 467.082603125 l 1
 267 467.417603125 l 1
 267 601 l 1
EndSplineSet
EndChar

StartChar: zy_my
Encoding: 323 -1 173
Width: 600
VWidth: 0
Flags: HW
HStem: 401 66<133 267 333 467> 601 66<133 267> 801 66<333 467>
VStem: 67 66<467 601 667 867> 267 66<467 601 667 801> 467 66<467 801>
CounterMasks: 1 fc
LayerCount: 2
Back
SplineSet
300 434.5 m 28
 300 834 l 29
 500 834 l 29
 500 434 l 5
 100 434 l 5
 100 834 l 1053
293 634 m 29
 100 634 l 1029
EndSplineSet
Fore
SplineSet
333 467 m 1
 467 467 l 1
 467 801 l 1
 333 801 l 1
 333 467 l 1
133 601 m 1
 133 467 l 1
 267 467 l 1
 267 601 l 1
 133 601 l 1
133 667 m 1
 267 667 l 1
 267 834 l 2
 267 843.333333333 270.5 851.166666667 277.5 857.5 c 128
 284.5 863.833333333 292 867 300 867 c 2
 500 867 l 2
 509.333333333 867 517.166666667 863.5 523.5 856.5 c 128
 529.833333333 849.5 533 842 533 834 c 2
 533 434 l 2
 533 424.666666667 529.5 416.833333333 522.5 410.5 c 128
 515.5 404.166666667 508 401 500 401 c 2
 300 401 l 1
 100 401 l 2
 90.6666666667 401 82.8333333333 404.5 76.5 411.5 c 128
 70.1666666667 418.5 67 426 67 434 c 2
 67 601 l 1
 67 634 l 1
 67 667 l 1
 67 834 l 1
 67 867 l 1
 100 867 l 1
 133 867 l 1
 133 834 l 1
 133 667 l 1
EndSplineSet
EndChar

StartChar: NameMe.241
Encoding: 241 -1 174
Width: 600
VWidth: 0
Flags: HW
LayerCount: 2
Back
SplineSet
500 434 m 5
 455.845350119 585.446981514 403.234875539 743.620194639 300 834 c 5
 100 834 l 5
 100 434 l 29
 300 434 l 5
 401.646231 507.274530895 455.418644037 696.193052235 500 834 c 1029
EndSplineSet
Fore
SplineSet
395.712427117 634.240387604 m 0
 393.617937063 639.229255597 391.569512411 644.028542385 389.567153161 648.638247966 c 0
 387.67735439 652.98882389 385.786671801 657.270580137 383.895105392 661.483516706 c 0
 358.578957077 717.869483407 326.387922464 764.374977839 287.322001551 801 c 1
 133 801 l 1
 133 467 l 1
 289.047135383 467 l 1
 295.744368012 472.299549298 302.157365992 478.115851667 308.286129322 484.448907108 c 0
 316.777762278 493.223594496 325.269437785 504.199340131 333.761155842 517.376144013 c 0
 343.393675427 532.323157162 351.693013781 545.270072905 358.659170905 556.216891242 c 0
 364.746008336 565.781921491 372.115220683 580.451964918 380.766807948 600.227021523 c 0
 384.88393375 609.637594784 388.517087893 617.918822273 391.666270378 625.07070399 c 0
 393.100277739 628.327374912 394.448996652 631.383936117 395.712427117 634.240387604 c 0
428.512846647 720.675405414 m 1
 432.898102064 733.184378829 435.844711261 741.593098363 437.35267424 745.901564016 c 0
 439.580226913 752.266000225 445.145533321 769.46229448 454.048593464 797.490446782 c 0
 462.364966973 823.671622643 467.024679395 838.56594324 468.027730732 842.173408573 c 2
 475.988973121 874.018378131 l 1
 508.003675626 866.014702505 l 1
 540.018378131 858.011026879 l 1
 532.014702505 825.996324374 l 2
 531.181002103 822.661522767 526.159903447 806.499265715 516.951406536 777.509553218 c 0
 507.854466679 748.871038853 502.086439753 731.067333109 499.64732576 724.098435984 c 0
 497.307629042 717.413588217 491.63885893 701.240917277 482.641015425 675.580423163 c 0
 478.055170488 662.502272787 474.049784254 651.425168623 470.624856725 642.34911067 c 0
 469.504044056 639.378957097 468.38049449 636.457128563 467.254208025 633.583625068 c 0
 469.66543889 627.495321293 471.965189473 621.594699367 474.153459773 615.881759289 c 0
 493.650617112 564.980327426 512.82032553 507.452907828 531.662585026 443.299500497 c 2
 540.962085523 411.636915471 l 1
 509.299500497 402.337414974 l 1
 477.636915471 393.037914477 l 1
 468.337414974 424.700499503 l 2
 455.376670322 468.828749151 442.267258474 509.713749649 429.00917943 547.355500997 c 1
 423.749469137 536.742157014 418.860019026 527.884692935 414.340829095 520.783108758 c 0
 407.306986219 509.729927095 398.939657907 496.676842838 389.238844158 481.623855987 c 0
 378.397228882 464.800659869 367.222237722 450.443072171 355.713870678 438.551092892 c 128
 344.278224143 426.734258139 332.050449091 416.230580679 319.030545521 407.040060512 c 0
 313.326043926 403.013353504 306.982528752 401 300 401 c 2
 100 401 l 2
 92 401 84.5 404.166666667 77.5 410.5 c 128
 70.5 416.833333333 67 424.666666667 67 434 c 2
 67 834 l 2
 67 842 70.1666666667 849.5 76.5 856.5 c 128
 82.8333333333 863.5 90.6666666667 867 100 867 c 2
 300 867 l 2
 308.240745693 867 315.467506784 864.29300453 321.680283272 858.879013591 c 0
 363.961992889 822.033523782 399.572847347 775.965654389 428.512846647 720.675405414 c 1
EndSplineSet
EndChar

StartChar: NameMe.240
Encoding: 240 -1 175
Width: 600
VWidth: 0
Flags: HW
LayerCount: 2
Back
SplineSet
300 815 m 29
 300 450 l 1053
500 434 m 4
 472 529.333333333 443.333333333 609.666666667 414 675 c 4
 384.666666667 740.333333333 346.666666667 793.333333333 300 834 c 5
 100 834 l 5
 100 434 l 5
 300 434 l 5
 311.333333333 442 322 451.166666667 332 461.5 c 4
 342 471.833333333 351.833333333 484.5 361.5 499.5 c 4
 371.166666667 514.5 379.5 527.5 386.5 538.5 c 4
 393.5 549.5 401.666666667 565.666666667 411 587 c 4
 420.333333333 608.333333333 427.166666667 623.833333333 431.5 633.5 c 4
 435.833333333 643.166666667 442.5 660.833333333 451.5 686.5 c 4
 460.5 712.166666667 466.166666667 728.333333333 468.5 735 c 4
 470.833333333 741.666666667 476.5 759.166666667 485.5 787.5 c 4
 494.5 815.833333333 499.333333333 831.333333333 500 834 c 1028
EndSplineSet
Fore
SplineSet
395.712427117 634.240387604 m 0
 393.617937063 639.229255597 391.569512411 644.028542385 389.567153161 648.638247966 c 0
 387.67735439 652.98882389 385.786671801 657.270580137 383.895105392 661.483516706 c 0
 369.23535029 694.134789434 352.270315159 723.472952038 333 749.498004518 c 1
 333 516.200934708 l 2
 333.253718576 516.590706221 333.50743719 516.982442656 333.761155842 517.376144013 c 0
 343.393675427 532.323157162 351.693013781 545.270072905 358.659170905 556.216891242 c 0
 364.746008336 565.781921491 372.115220683 580.451964918 380.766807948 600.227021523 c 0
 384.88393375 609.637594784 388.517087893 617.918822273 391.666270378 625.07070399 c 0
 393.100277739 628.327374912 394.448996652 631.383936117 395.712427117 634.240387604 c 0
428.512846647 720.675405414 m 1
 432.898102064 733.184378829 435.844711261 741.593098363 437.35267424 745.901564016 c 0
 439.580226913 752.266000225 445.145533321 769.46229448 454.048593464 797.490446782 c 0
 462.364966973 823.671622643 467.024679395 838.56594324 468.027730732 842.173408573 c 2
 475.988973121 874.018378131 l 1
 508.003675626 866.014702505 l 1
 540.018378131 858.011026879 l 1
 532.014702505 825.996324374 l 2
 531.181002103 822.661522767 526.159903447 806.499265715 516.951406536 777.509553218 c 0
 507.854466679 748.871038853 502.086439753 731.067333109 499.64732576 724.098435984 c 0
 497.307629042 717.413588217 491.63885893 701.240917277 482.641015425 675.580423163 c 0
 478.055170488 662.502272787 474.049784254 651.425168623 470.624856725 642.34911067 c 0
 469.504044056 639.378957097 468.38049449 636.457128563 467.254208025 633.583625068 c 0
 469.66543889 627.495321293 471.965189473 621.594699367 474.153459773 615.881759289 c 0
 493.650617112 564.980327426 512.82032553 507.452907828 531.662585026 443.299500497 c 2
 540.962085523 411.636915471 l 1
 509.299500497 402.337414974 l 1
 477.636915471 393.037914477 l 1
 468.337414974 424.700499503 l 2
 455.376670322 468.828749151 442.267258474 509.713749649 429.00917943 547.355500997 c 1
 423.749469137 536.742157014 418.860019026 527.884692935 414.340829095 520.783108758 c 0
 407.306986219 509.729927095 398.939657907 496.676842838 389.238844158 481.623855987 c 0
 378.397228882 464.800659869 367.222237722 450.443072171 355.713870678 438.551092892 c 0
 348.461198449 431.056664923 340.889908223 424.090428449 333 417.652383472 c 1
 333 417 l 1
 332.197170955 417 l 1
 327.902197713 413.524353551 323.513322568 410.204373722 319.030545521 407.040060512 c 0
 313.326043926 403.013353504 306.982528752 401 300 401 c 2
 100 401 l 2
 92 401 84.5 404.166666667 77.5 410.5 c 128
 70.5 416.833333333 67 424.666666667 67 434 c 2
 67 834 l 2
 67 842 70.1666666667 849.5 76.5 856.5 c 128
 82.8333333333 863.5 90.6666666667 867 100 867 c 2
 300 867 l 2
 308.240745693 867 315.467506784 864.29300453 321.680283272 858.879013591 c 0
 363.961992889 822.033523782 399.572847347 775.965654389 428.512846647 720.675405414 c 1
267 801 m 1
 133 801 l 1
 133 467 l 1
 267 467 l 1
 267 801 l 1
EndSplineSet
EndChar

StartChar: NameMe.208
Encoding: 208 -1 176
Width: 600
VWidth: 0
Flags: HW
LayerCount: 2
Back
SplineSet
300 820 m 29
 300 634 l 1053
300 834 m 5
 500 834 l 5
 500 634 l 5
 300 634 l 13
 300 434 l 1053
300 834 m 5
 100 834 l 5
 100 434 l 5
 500 434 l 1029
EndSplineSet
Fore
SplineSet
267 467 m 1
 267 601 l 1
 267 634 l 1
 267 801 l 1
 133 801 l 1
 133 467 l 1
 267 467 l 1
267 401 m 1
 100 401 l 2
 92 401 84.5 404.166666667 77.5 410.5 c 128
 70.5 416.833333333 67 424.666666667 67 434 c 2
 67 834 l 2
 67 842 70.1666666667 849.5 76.5 856.5 c 128
 82.8333333333 863.5 90.6666666667 867 100 867 c 2
 267 867 l 1
 300 867 l 1
 333 867 l 1
 500 867 l 2
 509.333333333 867 517.166666667 863.5 523.5 856.5 c 128
 529.833333333 849.5 533 842 533 834 c 2
 533 634 l 2
 533 624.666666667 529.5 616.833333333 522.5 610.5 c 128
 515.5 604.166666667 508 601 500 601 c 2
 333 601 l 1
 333 467 l 1
 500 467 l 1
 533 467 l 1
 533 434 l 1
 533 401 l 1
 500 401 l 1
 333 401 l 1
 300 401 l 1
 267 401 l 1
333 667 m 1
 467 667 l 1
 467 801 l 1
 333 801 l 1
 333 667 l 1
EndSplineSet
EndChar

StartChar: NameMe.214
Encoding: 214 -1 177
Width: 600
VWidth: 0
Flags: HW
LayerCount: 2
Back
SplineSet
100 700 m 5
 366 700 l 1053
100 434 m 21
 167 434 234.981309883 513.263987334 233 634 c 1037
366 834 m 29
 500 834 l 5
 500 434 l 5
 366 434 l 21
 300 434 234 513 233 634 c 5
 233 834 l 1053
EndSplineSet
Fore
SplineSet
333 834 m 1
 333 867 l 1
 366 867 l 1
 500 867 l 2
 509.333333333 867 517.166666667 863.5 523.5 856.5 c 128
 529.833333333 849.5 533 842 533 834 c 2
 533 434 l 2
 533 424.666666667 529.5 416.833333333 522.5 410.5 c 128
 515.5 404.166666667 508 401 500 401 c 2
 366 401 l 2
 319.953267213 401 280.308770083 424.477347165 247.066508611 471.432041494 c 0
 242.279318098 478.193948093 237.857093543 485.221123828 233.799834944 492.513568699 c 1
 229.698430074 485.168103173 225.20551577 478.088334095 220.321092031 471.274261464 c 0
 186.738701597 424.424753821 146.63167092 401 100 401 c 2
 67 401 l 1
 67 434 l 1
 67 467 l 1
 100 467 l 2
 124.034995747 467 146.261298403 481.241912845 166.678907969 509.725738536 c 0
 189.478217946 541.53218332 200.5859752 582.830508711 200.002179729 633.62071471 c 0
 200.002179729 633.683926837 200.001453153 633.747138964 200 633.810351091 c 2
 199.622894438 666.618534981 l 1
 200 666.622869528 l 1
 200 667 l 1
 100 667 l 1
 67 667 l 1
 67 700 l 1
 67 733 l 1
 100 733 l 1
 200 733 l 1
 200 834 l 1
 200 867 l 1
 233 867 l 1
 266 867 l 1
 266 834 l 1
 266 733 l 1
 366 733 l 1
 399 733 l 1
 399 700 l 1
 399 667 l 1
 366 667 l 1
 266 667 l 1
 266 634.189648909 l 2
 266.586363926 583.175987319 278.230861056 541.635423851 300.933491389 509.567958506 c 0
 321.02456325 481.189319502 342.713399454 467 366 467 c 2
 467 467 l 1
 467 801 l 1
 366 801 l 1
 333 801 l 1
 333 834 l 1
EndSplineSet
EndChar

StartChar: NameMe.246
Encoding: 246 -1 178
Width: 600
VWidth: 0
Flags: HW
LayerCount: 2
Back
SplineSet
100 700 m 5
 366 700 l 1053
100 434 m 21
 167 434 234.981309883 513.263987334 233 634 c 1037
233 834 m 29
 233 634 l 5
 234 513 300 434 366 434 c 13
 366 834 l 29
 500 834 l 13
 500 434 l 1053
EndSplineSet
Fore
SplineSet
233 867 m 1
 266 867 l 1
 266 834 l 1
 266 733 l 1
 333 733 l 1
 333 834 l 2
 333 843.333333333 336.5 851.166666667 343.5 857.5 c 128
 350.5 863.833333333 358 867 366 867 c 2
 500 867 l 2
 509.333333333 867 517.166666667 863.5 523.5 856.5 c 128
 529.833333333 849.5 533 842 533 834 c 2
 533 434 l 1
 533 401 l 1
 500 401 l 1
 467 401 l 1
 467 434 l 1
 467 801 l 1
 399 801 l 1
 399 733 l 1
 399 700 l 1
 399 667 l 1
 399 434 l 2
 399 426 395.833333333 418.5 389.5 411.5 c 128
 383.166666667 404.5 375.333333333 401 366 401 c 0
 319.953267213 401 280.308770083 424.477347165 247.066508611 471.432041494 c 0
 242.279318098 478.193948093 237.857093543 485.221123828 233.799834944 492.513568699 c 1
 229.698430074 485.168103173 225.20551577 478.088334095 220.321092031 471.274261464 c 0
 186.738701597 424.424753821 146.63167092 401 100 401 c 2
 67 401 l 1
 67 434 l 1
 67 467 l 1
 100 467 l 2
 124.034995747 467 146.261298403 481.241912845 166.678907969 509.725738536 c 0
 189.478217946 541.53218332 200.5859752 582.830508711 200.002179729 633.62071471 c 0
 200.002179729 633.683926837 200.001453153 633.747138964 200 633.810351091 c 2
 199.622894438 666.618534981 l 1
 200 666.622869528 l 1
 200 667 l 1
 100 667 l 1
 67 667 l 1
 67 700 l 1
 67 733 l 1
 100 733 l 1
 200 733 l 1
 200 834 l 1
 200 867 l 1
 233 867 l 1
266 667 m 1
 266 634.189648909 l 2
 266.586363926 583.175987319 278.230861056 541.635423851 300.933491389 509.567958506 c 0
 311.242185522 495.006928043 321.931021726 484.165186609 333 477.042734204 c 1
 333 667 l 1
 266 667 l 1
EndSplineSet
EndChar

StartChar: NameMe.278
Encoding: 278 -1 179
Width: 600
VWidth: 0
Flags: HW
LayerCount: 2
Back
SplineSet
366 566 m 29
 500 566 l 1053
100 700 m 5
 366 700 l 1053
100 434 m 21
 167 434 234.981309883 513.263987334 233 634 c 1037
233 834 m 29
 233 634 l 5
 234 513 300 434 366 434 c 13
 500 434 l 29
 500 834 l 29
 366 834 l 1053
EndSplineSet
Fore
SplineSet
233 867 m 1
 266 867 l 1
 266 834 l 1
 266 733 l 1
 366 733 l 1
 399 733 l 1
 399 700 l 1
 399 667 l 1
 366 667 l 1
 266 667 l 1
 266 634.189648909 l 2
 266.586363926 583.175987319 278.230861056 541.635423851 300.933491389 509.567958506 c 0
 321.02456325 481.189319502 342.713399454 467 366 467 c 2
 467 467 l 1
 467 533 l 1
 366 533 l 1
 333 533 l 1
 333 566 l 1
 333 599 l 1
 366 599 l 1
 467 599 l 1
 467 801 l 1
 366 801 l 1
 333 801 l 1
 333 834 l 1
 333 867 l 1
 366 867 l 1
 500 867 l 2
 508 867 515.5 863.833333333 522.5 857.5 c 128
 529.5 851.166666667 533 843.333333333 533 834 c 2
 533 599 l 1
 533 566 l 1
 533 533 l 1
 533 434 l 2
 533 426 529.833333333 418.5 523.5 411.5 c 128
 517.166666667 404.5 509.333333333 401 500 401 c 2
 366 401 l 2
 319.953267213 401 280.308770083 424.477347165 247.066508611 471.432041494 c 0
 242.279318098 478.193948093 237.857093543 485.221123828 233.799834944 492.513568699 c 1
 229.698430074 485.168103173 225.20551577 478.088334095 220.321092031 471.274261464 c 0
 186.738701597 424.424753821 146.63167092 401 100 401 c 2
 67 401 l 1
 67 434 l 1
 67 467 l 1
 100 467 l 2
 124.034995747 467 146.261298403 481.241912845 166.678907969 509.725738536 c 0
 189.478217946 541.53218332 200.5859752 582.830508711 200.002179729 633.62071471 c 0
 200.002179729 633.683926837 200.001453153 633.747138964 200 633.810351091 c 2
 199.622894438 666.618534981 l 1
 200 666.622869528 l 1
 200 667 l 1
 100 667 l 1
 67 667 l 1
 67 700 l 1
 67 733 l 1
 100 733 l 1
 200 733 l 1
 200 834 l 1
 200 867 l 1
 233 867 l 1
EndSplineSet
EndChar

StartChar: NameMe.310
Encoding: 310 -1 180
Width: 600
VWidth: 0
Flags: HW
LayerCount: 2
Back
SplineSet
100 634 m 5
 366 634 l 1053
100 434 m 21
 167 434 234.981309883 513.263987334 233 634 c 1037
233 834 m 29
 233 634 l 5
 234 513 300 434 366 434 c 5
 500 634 l 29
 366 833 l 1053
EndSplineSet
Fore
SplineSet
233 867 m 1
 266 867 l 1
 266 834 l 1
 266 667 l 1
 366 667 l 1
 399 667 l 1
 399 634 l 1
 399 601 l 1
 366 601 l 1
 268.098420668 601 l 1
 272.425365841 564.85318721 283.370389414 534.375840045 300.933491389 509.567958506 c 0
 316.439935388 487.665106357 332.758399565 474.222588057 349.88888392 469.240403606 c 1
 460.246916047 633.953884392 l 1
 338.627280845 814.56811876 l 1
 320.195399605 841.940837915 l 1
 347.56811876 860.372719155 l 1
 374.940837915 878.804600395 l 1
 393.372719155 851.43188124 l 1
 527.372719155 652.43188124 l 2
 535.626295687 640.174704152 535.640525726 627.907969001 527.415409273 615.631675787 c 2
 393.415409273 415.631675787 l 2
 386.879927422 405.877225262 377.741457664 401 366 401 c 0
 319.953267213 401 280.308770083 424.477347165 247.066508611 471.432041494 c 0
 242.279318098 478.193948093 237.857093543 485.221123828 233.799834944 492.513568699 c 1
 229.698430074 485.168103173 225.20551577 478.088334095 220.321092031 471.274261464 c 0
 186.738701597 424.424753821 146.63167092 401 100 401 c 2
 67 401 l 1
 67 434 l 1
 67 467 l 1
 100 467 l 2
 124.034995747 467 146.261298403 481.241912845 166.678907969 509.725738536 c 0
 184.384481742 534.426106886 195.039086658 564.850860707 198.642722719 601 c 1
 100 601 l 1
 67 601 l 1
 67 634 l 1
 67 667 l 1
 100 667 l 1
 200 667 l 1
 200 834 l 1
 200 867 l 1
 233 867 l 1
EndSplineSet
EndChar

StartChar: NameMe.342
Encoding: 342 -1 181
Width: 600
VWidth: 0
Flags: HW
LayerCount: 2
Back
SplineSet
100 634 m 5
 366 634 l 1053
100 434 m 21
 167 434 234.981309883 513.263987334 233 634 c 1037
233 834 m 29
 233 634 l 5
 234 513 300 434 366 434 c 5
 500 434 l 29
 500 834 l 29
 366 834 l 29
 366 434 l 1053
EndSplineSet
Fore
SplineSet
399 467 m 1
 467 467 l 1
 467 801 l 1
 399 801 l 1
 399 667 l 1
 399 634 l 1
 399 601 l 1
 399 467 l 1
67 434 m 1
 67 467 l 1
 100 467 l 2
 124.034995747 467 146.261298403 481.241912845 166.678907969 509.725738536 c 0
 184.384481742 534.426106886 195.039086658 564.850860707 198.642722719 601 c 1
 100 601 l 1
 67 601 l 1
 67 634 l 1
 67 667 l 1
 100 667 l 1
 200 667 l 1
 200 834 l 1
 200 867 l 1
 233 867 l 1
 266 867 l 1
 266 834 l 1
 266 667 l 1
 333 667 l 1
 333 834 l 2
 333 842 336.166666667 849.5 342.5 856.5 c 128
 348.833333333 863.5 356.666666667 867 366 867 c 2
 500 867 l 2
 508 867 515.5 863.833333333 522.5 857.5 c 128
 529.5 851.166666667 533 843.333333333 533 834 c 2
 533 434 l 2
 533 426 529.833333333 418.5 523.5 411.5 c 128
 517.166666667 404.5 509.333333333 401 500 401 c 2
 366 401 l 1
 333 401 l 1
 333 405.429025541 l 1
 300.384438161 414.579812882 271.739941032 436.580818199 247.066508611 471.432041494 c 0
 242.279318098 478.193948093 237.857093543 485.221123828 233.799834944 492.513568699 c 1
 229.698430074 485.168103173 225.20551577 478.088334095 220.321092031 471.274261464 c 0
 186.738701597 424.424753821 146.63167092 401 100 401 c 2
 67 401 l 1
 67 434 l 1
333 601 m 1
 268.098420668 601 l 1
 272.425365841 564.85318721 283.370389414 534.375840045 300.933491389 509.567958506 c 0
 311.242185522 495.006928043 321.931021726 484.165186609 333 477.042734204 c 1
 333 601 l 1
EndSplineSet
EndChar

StartChar: NameMe.374
Encoding: 374 -1 183
Width: 600
VWidth: 0
Flags: HW
LayerCount: 2
Back
SplineSet
100 634 m 5
 496 634 l 1053
100 434 m 21
 167 434 234.981309883 513.263987334 233 634 c 1037
233 834 m 29
 233 634 l 5
 234 513 300 434 366 434 c 5
 500 434 l 29
 500 834 l 29
 366 834 l 29
 366 434 l 1053
EndSplineSet
Fore
SplineSet
399 467 m 1
 467 467 l 1
 467 601 l 1
 399 601 l 1
 399 467 l 1
67 434 m 1
 67 467 l 1
 100 467 l 2
 124.034995747 467 146.261298403 481.241912845 166.678907969 509.725738536 c 0
 184.384481742 534.426106886 195.039086658 564.850860707 198.642722719 601 c 1
 100 601 l 1
 67 601 l 1
 67 634 l 1
 67 667 l 1
 100 667 l 1
 200 667 l 1
 200 834 l 1
 200 867 l 1
 233 867 l 1
 266 867 l 1
 266 834 l 1
 266 667 l 1
 333 667 l 1
 333 834 l 2
 333 842 336.166666667 849.5 342.5 856.5 c 128
 348.833333333 863.5 356.666666667 867 366 867 c 2
 500 867 l 2
 508 867 515.5 863.833333333 522.5 857.5 c 128
 529.5 851.166666667 533 843.333333333 533 834 c 2
 533 434 l 2
 533 426 529.833333333 418.5 523.5 411.5 c 128
 517.166666667 404.5 509.333333333 401 500 401 c 2
 366 401 l 1
 333 401 l 1
 333 405.429025541 l 1
 300.384438161 414.579812882 271.739941032 436.580818199 247.066508611 471.432041494 c 0
 242.279318098 478.193948093 237.857093543 485.221123828 233.799834944 492.513568699 c 1
 229.698430074 485.168103173 225.20551577 478.088334095 220.321092031 471.274261464 c 0
 186.738701597 424.424753821 146.63167092 401 100 401 c 2
 67 401 l 1
 67 434 l 1
333 601 m 1
 268.098420668 601 l 1
 272.425365841 564.85318721 283.370389414 534.375840045 300.933491389 509.567958506 c 0
 311.242185522 495.006928043 321.931021726 484.165186609 333 477.042734204 c 1
 333 601 l 1
467 667 m 1
 467 801 l 1
 399 801 l 1
 399 667 l 1
 467 667 l 1
EndSplineSet
EndChar

StartChar: NameMe.272
Encoding: 272 -1 184
Width: 600
VWidth: 0
Flags: HW
LayerCount: 2
Back
SplineSet
34 804 m 29
 35 464 l 1053
300 434 m 5
 34 834 l 21
 -100 834 l 5
 -100 434 l 5
 35 434 l 13
 300 834 l 1029
EndSplineSet
Fore
SplineSet
167.198242188 693.295898438 m 1
 272.489257812 852.225585938 l 1
 290.71484375 879.736328125 l 1
 318.225585938 861.510742188 l 1
 345.736328125 843.28515625 l 1
 327.510742188 815.774414062 l 1
 206.858398438 633.658203125 l 1
 327.478515625 452.2734375 l 1
 345.751953125 424.794921875 l 1
 318.2734375 406.521484375 l 1
 290.794921875 388.248046875 l 1
 272.521484375 415.7265625 l 1
 167.302734375 573.950195312 l 1
 62.5107421875 415.774414062 l 2
 55.9853515625 405.924804687 46.8151041667 401 35 401 c 2
 -100 401 l 2
 -108 401 -115.5 404.166666667 -122.5 410.5 c 128
 -129.5 416.833333333 -133 424.666666667 -133 434 c 2
 -133 834 l 2
 -133 842 -129.833333333 849.5 -123.5 856.5 c 128
 -117.166666667 863.5 -109.333333333 867 -100 867 c 2
 34 867 l 2
 45.7903645833 867 54.9498697917 862.091145833 61.478515625 852.2734375 c 2
 167.198242188 693.295898438 l 1
1.0087890625 801 m 1
 -67 801 l 1
 -67 467 l 1
 1.9912109375 467 l 1
 1.0087890625 801 l 1
67.234375 724.428710938 m 1
 67.767578125 543.2109375 l 1
 127.642578125 633.588867188 l 1
 67.234375 724.428710938 l 1
EndSplineSet
EndChar

StartChar: NameMe.274
Encoding: 274 -1 185
Width: 600
VWidth: 0
Flags: HW
LayerCount: 2
Back
SplineSet
34 804 m 29
 35 464 l 1053
300 434 m 5
 34 834 l 21
 -100 834 l 1029
-100 434 m 5
 35 434 l 13
 300 834 l 1029
EndSplineSet
Fore
SplineSet
-133 434 m 1
 -133 467 l 1
 -100 467 l 1
 1.9912109375 467 l 1
 1.0087890625 801 l 1
 -100 801 l 1
 -133 801 l 1
 -133 834 l 1
 -133 867 l 1
 -100 867 l 1
 34 867 l 2
 45.7903645833 867 54.9498697917 862.091145833 61.478515625 852.2734375 c 2
 167.198242188 693.295898438 l 1
 272.489257812 852.225585938 l 1
 290.71484375 879.736328125 l 1
 318.225585938 861.510742188 l 1
 345.736328125 843.28515625 l 1
 327.510742188 815.774414062 l 1
 206.858398438 633.658203125 l 1
 327.478515625 452.2734375 l 1
 345.751953125 424.794921875 l 1
 318.2734375 406.521484375 l 1
 290.794921875 388.248046875 l 1
 272.521484375 415.7265625 l 1
 167.302734375 573.950195312 l 1
 62.5107421875 415.774414062 l 2
 55.9853515625 405.924804687 46.8151041667 401 35 401 c 2
 -100 401 l 1
 -133 401 l 1
 -133 434 l 1
127.642578125 633.588867188 m 1
 67.234375 724.428710938 l 1
 67.767578125 543.2109375 l 1
 127.642578125 633.588867188 l 1
EndSplineSet
EndChar

StartChar: NameMe.273
Encoding: 273 -1 186
Width: 600
VWidth: 0
Flags: HW
LayerCount: 2
Back
SplineSet
300 434 m 5
 34 834 l 21
 -100 834 l 5
 -100 434 l 5
 35 434 l 13
 300 834 l 1029
EndSplineSet
Fore
SplineSet
127.642578125 633.588867188 m 1
 16.314453125 801 l 1
 -67 801 l 1
 -67 467 l 1
 17.27734375 467 l 1
 127.642578125 633.588867188 l 1
167.198242188 693.295898438 m 1
 272.489257812 852.225585938 l 1
 290.71484375 879.736328125 l 1
 318.225585938 861.510742188 l 1
 345.736328125 843.28515625 l 1
 327.510742188 815.774414062 l 1
 206.858398438 633.658203125 l 1
 327.478515625 452.2734375 l 1
 345.751953125 424.794921875 l 1
 318.2734375 406.521484375 l 1
 290.794921875 388.248046875 l 1
 272.521484375 415.7265625 l 1
 167.302734375 573.950195312 l 1
 62.5107421875 415.774414062 l 2
 55.9853515625 405.924804687 46.8151041667 401 35 401 c 2
 -100 401 l 2
 -108 401 -115.5 404.166666667 -122.5 410.5 c 128
 -129.5 416.833333333 -133 424.666666667 -133 434 c 2
 -133 834 l 2
 -133 842 -129.833333333 849.5 -123.5 856.5 c 128
 -117.166666667 863.5 -109.333333333 867 -100 867 c 2
 34 867 l 2
 45.7903645833 867 54.9498697917 862.091145833 61.478515625 852.2734375 c 2
 167.198242188 693.295898438 l 1
EndSplineSet
EndChar

StartChar: NameMe.276
Encoding: 276 -1 187
Width: 600
VWidth: 0
Flags: HW
LayerCount: 2
Back
SplineSet
34 807 m 5
 34 434 l 29
 300 834 l 1029
300 434 m 5
 34 834 l 21
 -100 834 l 5
 -100 434 l 1029
EndSplineSet
Fore
SplineSet
318.2734375 406.521484375 m 1
 290.794921875 388.248046875 l 1
 272.521484375 415.7265625 l 1
 167 574.405273438 l 1
 61.478515625 415.7265625 l 2
 55.5533854167 406.81640625 47.2568359375 401.94140625 36.5888671875 401.1015625 c 0
 27.1337890625 400.357421875 18.8385416667 403.283528645 11.703125 409.879882812 c 128
 4.56770833333 416.475585937 1 424.515625 1 434 c 2
 1 801 l 1
 -67 801 l 1
 -67 434 l 1
 -67 401 l 1
 -100 401 l 1
 -133 401 l 1
 -133 434 l 1
 -133 834 l 2
 -133 842 -129.833333333 849.5 -123.5 856.5 c 128
 -117.166666667 863.5 -109.333333333 867 -100 867 c 2
 34 867 l 2
 45.7903645833 867 54.9498697917 862.091145833 61.478515625 852.2734375 c 2
 167 693.594726562 l 1
 272.521484375 852.2734375 l 1
 290.794921875 879.751953125 l 1
 318.2734375 861.478515625 l 1
 345.751953125 843.205078125 l 1
 327.478515625 815.7265625 l 1
 206.630859375 634 l 1
 327.478515625 452.2734375 l 1
 345.751953125 424.794921875 l 1
 318.2734375 406.521484375 l 1
127.369140625 634 m 1
 67 724.78125 l 1
 67 543.21875 l 1
 127.369140625 634 l 1
EndSplineSet
EndChar

StartChar: NameMe.406
Encoding: 406 -1 188
Width: 1000
VWidth: 0
Flags: HW
LayerCount: 2
Back
SplineSet
100 634 m 5
 368 634 l 1053
100 434 m 21
 167 434 234.981309883 513.263987334 233 634 c 1037
233 834 m 29
 233 634 l 5
 234 513 300 434 366 434 c 5
 500 434 l 29
 500 634 l 5
 368 634 l 29
 368 834 l 5
 500 834 l 1053
366 434 m 1053
EndSplineSet
Fore
SplineSet
233 867 m 1
 266 867 l 1
 266 834 l 1
 266 667 l 1
 335 667 l 1
 335 834 l 2
 335 843.333333333 338.5 851.166666667 345.5 857.5 c 128
 352.5 863.833333333 360 867 368 867 c 2
 500 867 l 1
 533 867 l 1
 533 834 l 1
 533 801 l 1
 500 801 l 1
 401 801 l 1
 401 667 l 1
 500 667 l 2
 508 667 515.5 663.833333333 522.5 657.5 c 128
 529.5 651.166666667 533 643.333333333 533 634 c 2
 533 434 l 2
 533 426 529.833333333 418.5 523.5 411.5 c 128
 517.166666667 404.5 509.333333333 401 500 401 c 2
 399 401 l 1
 366 401 l 2
 320 401 280.35550287 424.477347165 247.066508611 471.432041494 c 0
 242.251741666 478.241750046 237.806377212 485.280968137 233.73041525 492.549695766 c 1
 229.647750519 485.204756729 225.177976113 478.112945295 220.321092031 471.274261464 c 0
 186.773697344 424.424753821 146.666666667 401 100 401 c 2
 67 401 l 1
 67 434 l 1
 67 467 l 1
 100 467 l 2
 124 467 146.226302656 481.241912845 166.678907969 509.725738536 c 0
 184.472374185 534.234660732 195.146045154 564.659414553 198.699920874 601 c 1
 100 601 l 1
 67 601 l 1
 67 634 l 1
 67 667 l 1
 100 667 l 1
 200 667 l 1
 200 834 l 1
 200 867 l 1
 233 867 l 1
399 467 m 1
 467 467 l 1
 467 601 l 1
 401 601 l 1
 368 601 l 1
 267.843922748 601 l 1
 271.965223832 565.428748854 282.995080045 534.95140169 300.933491389 509.567958506 c 0
 320.977830463 481.189319502 342.666666667 467 366 467 c 2
 399 467 l 1
EndSplineSet
EndChar

StartChar: NameMe.438
Encoding: 438 -1 189
Width: 1000
VWidth: 0
Flags: HW
LayerCount: 2
Back
SplineSet
500 434 m 25
 358 834 l 1049
100 634 m 1
 358 634 l 1025
100 434 m 16
 135.333333333 434 166.5 452.833333333 193.5 490.5 c 128
 220.5 528.166666667 233.666666667 576 233 634 c 1024
233 834 m 25
 233 634 l 2
 233.666666667 576 247.333333333 528.166666667 274 490.5 c 128
 300.666666667 452.833333333 329 434 367 434 c 9
 500 834 l 1025
EndSplineSet
Fore
SplineSet
382.081553746 404.64788361 m 2
 377.432326513 402.259041542 372.227033603 401 367 401 c 0
 315.787580319 401 277.100384689 429.009191534 247.066508611 471.432041494 c 0
 242.258159191 478.223835049 237.835586539 485.260163805 233.790813745 492.534191206 c 1
 229.705911006 485.197332826 225.218657232 478.106667239 220.321092031 471.274261464 c 0
 189.464123947 428.226886236 148.446530788 401 100 401 c 2
 67 401 l 1
 67 434 l 1
 67 467 l 1
 100 467 l 2
 122.220135879 467 143.535876053 477.439780431 166.678907969 509.725738536 c 0
 183.982997015 533.866010909 194.998461464 563.755922649 198.666824848 601 c 1
 100 601 l 1
 67 601 l 1
 67 634 l 1
 67 667 l 1
 100 667 l 1
 200 667 l 1
 200 867 l 1
 266 867 l 1
 266 667 l 1
 358 667 l 1
 382.267272704 667 l 1
 326.901465512 822.960020257 l 1
 315.861485769 854.058554744 l 1
 346.960020257 865.098534488 l 1
 378.058554744 876.138514231 l 1
 389.098534488 845.039979743 l 1
 430.302230928 728.973229208 l 1
 479.097658947 875.726396184 l 1
 541.726396184 854.902341053 l 1
 531.314368618 823.587972434 l 1
 466.216734385 627.805613836 l 1
 531.098534488 445.039979743 l 1
 542.138514231 413.941445256 l 1
 511.039979743 402.901465512 l 1
 479.941445256 391.861485769 l 1
 468.901465512 422.960020257 l 1
 432.3450418 525.935861701 l 1
 398.314368618 423.587972434 l 2
 397.998852632 422.639052173 382.081553746 404.64788361 382.081553746 404.64788361 c 2
268.101980182 601 m 1
 272.554999345 563.904170075 283.886265601 533.881007218 300.966078775 509.518501427 c 0
 317.907907222 485.812775519 331.310430799 475.759773793 344.464446168 470.814478052 c 1
 387.751132216 601 l 1
 358 601 l 1
 268.101980182 601 l 1
391 610.771030929 m 1
 396.430538343 627.103477073 l 1
 391 642.400768179 l 1
 391 634 l 1
 391 610.771030929 l 1
EndSplineSet
EndChar

StartChar: NameMe.186
Encoding: 186 12435 190
Width: 0
VWidth: 230
Flags: W
HStem: -142.99 60<84.9161 375.01 435.01 785.01>
VStem: 24.0001 59.9997<-82.9902 239.916> 375.01 60<-265.99 -142.99>
AnchorPoint: "Above" 0 0 mark 0
LayerCount: 2
Fore
SplineSet
53.9062141773 240.009619028 m 1
 83.9060675806 240.103404851 l 1
 83.9998534033 210.103551448 l 1
 84.9161259415 -82.990234375 l 1
 375.009765625 -82.990234375 l 1
 405.009765625 -82.990234375 l 1
 435.009765625 -82.990234375 l 1
 755.009765625 -82.990234375 l 1
 785.009765625 -82.990234375 l 1
 785.009765625 -112.990234375 l 1
 785.009765625 -142.990234375 l 1
 755.009765625 -142.990234375 l 1
 435.009765625 -142.990234375 l 1
 435.009765625 -235.990234375 l 1
 435.009765625 -265.990234375 l 1
 405.009765625 -265.990234375 l 1
 375.009765625 -265.990234375 l 1
 375.009765625 -235.990234375 l 1
 375.009765625 -142.990234375 l 1
 55.009765625 -142.990234375 l 2
 47.3223905619 -142.990234375 40.4070520203 -140.078916305 34.26375 -134.256280165 c 128
 28.1204479797 -128.433644025 25.035835387 -121.376224036 25.0099122217 -113.084020198 c 2
 24.0001465967 209.915979802 l 1
 23.906360774 239.915833206 l 1
 53.9062141773 240.009619028 l 1
EndSplineSet
EndChar

StartChar: NameMe.181
Encoding: 187 12356 191
Width: 0
VWidth: 230
Flags: W
HStem: -142.99 60<84.9161 375.01 435.01 785.01>
VStem: 24.0001 59.9997<-82.9902 239.916> 375.01 60<-265.99 -142.99>
AnchorPoint: "Above" 0 0 mark 0
LayerCount: 2
Fore
SplineSet
53.9062141773 240.009619028 m 1
 83.9060675806 240.103404851 l 1
 83.9998534033 210.103551448 l 1
 84.9161259415 -82.990234375 l 1
 375.009765625 -82.990234375 l 1
 405.009765625 -82.990234375 l 1
 435.009765625 -82.990234375 l 1
 755.009765625 -82.990234375 l 1
 785.009765625 -82.990234375 l 1
 785.009765625 -112.990234375 l 1
 785.009765625 -142.990234375 l 1
 755.009765625 -142.990234375 l 1
 435.009765625 -142.990234375 l 1
 435.009765625 -235.990234375 l 1
 435.009765625 -265.990234375 l 1
 405.009765625 -265.990234375 l 1
 375.009765625 -265.990234375 l 1
 375.009765625 -235.990234375 l 1
 375.009765625 -142.990234375 l 1
 55.009765625 -142.990234375 l 2
 47.3223905619 -142.990234375 40.4070520203 -140.078916305 34.26375 -134.256280165 c 128
 28.1204479797 -128.433644025 25.035835387 -121.376224036 25.0099122217 -113.084020198 c 2
 24.0001465967 209.915979802 l 1
 23.906360774 239.915833206 l 1
 53.9062141773 240.009619028 l 1
EndSplineSet
EndChar

StartChar: NameMe.182
Encoding: 188 12358 192
Width: 0
VWidth: 230
Flags: W
HStem: -142.99 60<84.9161 375.01 435.01 785.01>
VStem: 24.0001 59.9997<-82.9902 239.916> 375.01 60<-265.99 -142.99>
AnchorPoint: "Above" 0 0 mark 0
LayerCount: 2
Fore
SplineSet
53.9062141773 240.009619028 m 1
 83.9060675806 240.103404851 l 1
 83.9998534033 210.103551448 l 1
 84.9161259415 -82.990234375 l 1
 375.009765625 -82.990234375 l 1
 405.009765625 -82.990234375 l 1
 435.009765625 -82.990234375 l 1
 755.009765625 -82.990234375 l 1
 785.009765625 -82.990234375 l 1
 785.009765625 -112.990234375 l 1
 785.009765625 -142.990234375 l 1
 755.009765625 -142.990234375 l 1
 435.009765625 -142.990234375 l 1
 435.009765625 -235.990234375 l 1
 435.009765625 -265.990234375 l 1
 405.009765625 -265.990234375 l 1
 375.009765625 -265.990234375 l 1
 375.009765625 -235.990234375 l 1
 375.009765625 -142.990234375 l 1
 55.009765625 -142.990234375 l 2
 47.3223905619 -142.990234375 40.4070520203 -140.078916305 34.26375 -134.256280165 c 128
 28.1204479797 -128.433644025 25.035835387 -121.376224036 25.0099122217 -113.084020198 c 2
 24.0001465967 209.915979802 l 1
 23.906360774 239.915833206 l 1
 53.9062141773 240.009619028 l 1
EndSplineSet
EndChar

StartChar: NameMe.183
Encoding: 189 12363 193
Width: 0
VWidth: 230
Flags: W
HStem: -142.99 60<84.9161 375.01 435.01 785.01>
VStem: 24.0001 59.9997<-82.9902 239.916> 375.01 60<-265.99 -142.99>
AnchorPoint: "Above" 0 0 mark 0
LayerCount: 2
Fore
SplineSet
53.9062141773 240.009619028 m 1
 83.9060675806 240.103404851 l 1
 83.9998534033 210.103551448 l 1
 84.9161259415 -82.990234375 l 1
 375.009765625 -82.990234375 l 1
 405.009765625 -82.990234375 l 1
 435.009765625 -82.990234375 l 1
 755.009765625 -82.990234375 l 1
 785.009765625 -82.990234375 l 1
 785.009765625 -112.990234375 l 1
 785.009765625 -142.990234375 l 1
 755.009765625 -142.990234375 l 1
 435.009765625 -142.990234375 l 1
 435.009765625 -235.990234375 l 1
 435.009765625 -265.990234375 l 1
 405.009765625 -265.990234375 l 1
 375.009765625 -265.990234375 l 1
 375.009765625 -235.990234375 l 1
 375.009765625 -142.990234375 l 1
 55.009765625 -142.990234375 l 2
 47.3223905619 -142.990234375 40.4070520203 -140.078916305 34.26375 -134.256280165 c 128
 28.1204479797 -128.433644025 25.035835387 -121.376224036 25.0099122217 -113.084020198 c 2
 24.0001465967 209.915979802 l 1
 23.906360774 239.915833206 l 1
 53.9062141773 240.009619028 l 1
EndSplineSet
EndChar

StartChar: NameMe.184
Encoding: 190 12375 194
Width: 0
VWidth: 230
Flags: W
HStem: -142.99 60<84.9161 375.01 435.01 785.01>
VStem: 24.0001 59.9997<-82.9902 239.916> 375.01 60<-265.99 -142.99>
AnchorPoint: "Above" 0 0 mark 0
LayerCount: 2
Fore
SplineSet
53.9062141773 240.009619028 m 1
 83.9060675806 240.103404851 l 1
 83.9998534033 210.103551448 l 1
 84.9161259415 -82.990234375 l 1
 375.009765625 -82.990234375 l 1
 405.009765625 -82.990234375 l 1
 435.009765625 -82.990234375 l 1
 755.009765625 -82.990234375 l 1
 785.009765625 -82.990234375 l 1
 785.009765625 -112.990234375 l 1
 785.009765625 -142.990234375 l 1
 755.009765625 -142.990234375 l 1
 435.009765625 -142.990234375 l 1
 435.009765625 -235.990234375 l 1
 435.009765625 -265.990234375 l 1
 405.009765625 -265.990234375 l 1
 375.009765625 -265.990234375 l 1
 375.009765625 -235.990234375 l 1
 375.009765625 -142.990234375 l 1
 55.009765625 -142.990234375 l 2
 47.3223905619 -142.990234375 40.4070520203 -140.078916305 34.26375 -134.256280165 c 128
 28.1204479797 -128.433644025 25.035835387 -121.376224036 25.0099122217 -113.084020198 c 2
 24.0001465967 209.915979802 l 1
 23.906360774 239.915833206 l 1
 53.9062141773 240.009619028 l 1
EndSplineSet
EndChar

StartChar: NameMe.185
Encoding: 191 12398 195
Width: 0
VWidth: 230
Flags: W
HStem: -142.99 60<84.9161 375.01 435.01 785.01>
VStem: 24.0001 59.9997<-82.9902 239.916> 375.01 60<-265.99 -142.99>
AnchorPoint: "Above" 0 0 mark 0
LayerCount: 2
Fore
SplineSet
53.9062141773 240.009619028 m 1
 83.9060675806 240.103404851 l 1
 83.9998534033 210.103551448 l 1
 84.9161259415 -82.990234375 l 1
 375.009765625 -82.990234375 l 1
 405.009765625 -82.990234375 l 1
 435.009765625 -82.990234375 l 1
 755.009765625 -82.990234375 l 1
 785.009765625 -82.990234375 l 1
 785.009765625 -112.990234375 l 1
 785.009765625 -142.990234375 l 1
 755.009765625 -142.990234375 l 1
 435.009765625 -142.990234375 l 1
 435.009765625 -235.990234375 l 1
 435.009765625 -265.990234375 l 1
 405.009765625 -265.990234375 l 1
 375.009765625 -265.990234375 l 1
 375.009765625 -235.990234375 l 1
 375.009765625 -142.990234375 l 1
 55.009765625 -142.990234375 l 2
 47.3223905619 -142.990234375 40.4070520203 -140.078916305 34.26375 -134.256280165 c 128
 28.1204479797 -128.433644025 25.035835387 -121.376224036 25.0099122217 -113.084020198 c 2
 24.0001465967 209.915979802 l 1
 23.906360774 239.915833206 l 1
 53.9062141773 240.009619028 l 1
EndSplineSet
EndChar

StartChar: NameMe.198
Encoding: 198 -1 196
Width: 1000
VWidth: 0
Flags: HW
AnchorPoint: "Above" 0 0 mark 0
LayerCount: 2
Back
SplineSet
500 434 m 29
 366 434 l 29
 366 834 l 1053
366 568 m 5
 100 568 l 1053
233 634 m 21
 231.018554688 754.736328125 299 834 366 834 c 13
 500 834 l 1053
100 834 m 21
 166 834 232 755 233 634 c 5
 233 434 l 1053
EndSplineSet
Fore
SplineSet
67 834 m 1
 67 867 l 1
 100 867 l 2
 155.129684133 867 202.425620595 831.279419974 232.271307252 775.548690402 c 1
 256.147181536 819.932789498 291.605366482 851.575414166 333 862.659990419 c 1
 333 867 l 1
 366 867 l 1
 399 867 l 1
 500 867 l 1
 533 867 l 1
 533 834 l 1
 533 801 l 1
 500 801 l 1
 399 801 l 1
 399 601 l 1
 399 568 l 1
 399 535 l 1
 399 467 l 1
 500 467 l 1
 533 467 l 1
 533 434 l 1
 533 401 l 1
 500 401 l 1
 366 401 l 2
 346.025050031 401 333 419.836526281 333 434 c 2
 333 535 l 1
 266 535 l 1
 266 434 l 1
 266 401 l 1
 233 401 l 1
 200 401 l 1
 200 434 l 1
 200 535 l 1
 100 535 l 1
 67 535 l 1
 67 568 l 1
 67 601 l 1
 100 601 l 1
 200 601 l 1
 200 633.736214002 l 2
 199.986306247 634.614807437 199.976073285 635.492179023 199.969283972 636.36830515 c 0
 198.164477781 747.229470403 137.910199492 801.000000001 100 801 c 2
 67 801 l 1
 67 834 l 1
266 601.537130642 m 2
 266 601 l 1
 333 601 l 1
 333 790.411179584 l 1
 299.319199854 769.731976407 265.287429967 718.714087365 265.966167265 636.918805777 c 0
 265.979520503 636.087307678 265.98998025 635.254706403 265.997534135 634.421022652 c 2
 266.537058324 601.545944491 l 2
 266.358038882 601.545944491 266.179019441 601.537130642 266 601.537130642 c 2
EndSplineSet
EndChar

StartChar: NameMe.230
Encoding: 230 -1 197
Width: 1000
VWidth: 0
Flags: HW
LayerCount: 2
Back
SplineSet
366 834 m 29
 366 434 l 29
 500 434 l 29
 500 834 l 1053
366 568 m 5
 100 568 l 1053
233 634 m 21
 231.018554688 754.736328125 299 834 366 834 c 1037
100 834 m 21
 166 834 232 755 233 634 c 5
 233 434 l 1053
EndSplineSet
Fore
SplineSet
67 834 m 1
 67 867 l 1
 100 867 l 2
 155.129684133 867 202.425620595 831.279419974 232.271307252 775.548690402 c 1
 256.147181536 819.932789498 291.605366482 851.575414166 333 862.659990419 c 1
 333 867 l 1
 366 867 l 1
 399 867 l 1
 399 834 l 1
 399 801 l 1
 399 601 l 1
 399 568 l 1
 399 535 l 1
 399 467 l 1
 467 467 l 1
 467 834 l 1
 467 867 l 1
 500 867 l 1
 533 867 l 1
 533 834 l 1
 533 434 l 2
 533 419.836526281 519.974949969 401 500 401 c 2
 366 401 l 2
 351.836526281 401 333 414.025050031 333 434 c 2
 333 535 l 1
 266 535 l 1
 266 434 l 1
 266 401 l 1
 233 401 l 1
 200 401 l 1
 200 434 l 1
 200 535 l 1
 100 535 l 1
 67 535 l 1
 67 568 l 1
 67 601 l 1
 100 601 l 1
 200 601 l 1
 200 633.736214002 l 2
 199.986306247 634.614807437 199.976073285 635.492179023 199.969283972 636.36830515 c 0
 198.164477781 747.229470403 137.910199492 801.000000001 100 801 c 2
 67 801 l 1
 67 834 l 1
266 601.537130642 m 2
 266 601 l 1
 333 601 l 1
 333 790.411179584 l 1
 299.319199854 769.731976407 265.287429967 718.714087365 265.966167265 636.918805777 c 0
 265.979520503 636.087307678 265.98998025 635.254706403 265.997534135 634.421022652 c 2
 266.537058324 601.545944491 l 2
 266.358038882 601.545944491 266.179019441 601.537130642 266 601.537130642 c 2
EndSplineSet
EndChar

StartChar: NameMe.262
Encoding: 262 -1 198
Width: 1000
VWidth: 0
Flags: HW
LayerCount: 2
Back
SplineSet
500 434 m 29
 366 434 l 29
 366 834 l 1053
500 634 m 5
 100 634 l 1029
233 634 m 21
 231.018554688 754.736328125 299 834 366 834 c 13
 500 834 l 1053
100 834 m 21
 166 834 232 755 233 634 c 5
 233 434 l 1053
EndSplineSet
Fore
SplineSet
67 834 m 1
 67 867 l 1
 100 867 l 2
 155.129684133 867 202.425620595 831.279419974 232.271307252 775.548690402 c 1
 256.147181536 819.932789498 291.605366482 851.575414166 333 862.659990419 c 1
 333 867 l 1
 366 867 l 1
 399 867 l 1
 500 867 l 1
 533 867 l 1
 533 834 l 1
 533 801 l 1
 500 801 l 1
 399 801 l 1
 399 667 l 1
 500 667 l 1
 533 667 l 1
 533 634 l 1
 533 601 l 1
 500 601 l 1
 399 601 l 1
 399 467 l 1
 500 467 l 1
 533 467 l 1
 533 434 l 1
 533 401 l 1
 500 401 l 1
 366 401 l 2
 346.025050031 401 333 419.836526281 333 434 c 2
 333 601 l 1
 266 601 l 1
 266 434 l 1
 266 401 l 1
 233 401 l 1
 200 401 l 1
 200 434 l 1
 200 601 l 1
 100 601 l 1
 67 601 l 1
 67 634 l 1
 67 667 l 1
 100 667 l 1
 197.870504848 667 l 1
 186.693311622 757.148398658 134.235497273 801 100 801 c 2
 67 801 l 1
 67 834 l 1
267.357125082 667 m 1
 333 667 l 1
 333 790.411179584 l 1
 303.658244228 772.396045544 274.050123509 731.355671794 267.357125082 667 c 1
EndSplineSet
EndChar

StartChar: NameMe.294
Encoding: 294 -1 199
Width: 1000
VWidth: 0
Flags: HW
LayerCount: 2
Back
SplineSet
500 834 m 1
 367 634 l 25
 500 434 l 1025
367 634 m 1
 100 634 l 1025
233 634 m 17
 231.018554688 754.736328125 299 834 366 834 c 1033
100 834 m 17
 166 834 232 755 233 634 c 1
 233 434 l 1049
EndSplineSet
Fore
SplineSet
67 834 m 1
 67 867 l 1
 100 867 l 2
 155.129684133 867 202.425620595 831.279419974 232.271307252 775.548690402 c 1
 262.284054874 831.340941137 310.59836439 867 366 867 c 2
 399 867 l 1
 399 834 l 1
 399 801 l 1
 366 801 l 2
 330.405576914 801 276.674935357 756.594214971 267.357125082 667 c 1
 349.314418059 667 l 1
 472.521221071 852.273387988 l 1
 490.794609059 879.752166917 l 1
 518.273387988 861.478778929 l 1
 545.752166917 843.205390941 l 1
 527.478778929 815.726612012 l 1
 406.630581941 634 l 1
 527.478778929 452.273387988 l 1
 545.752166917 424.794609059 l 1
 518.273387988 406.521221071 l 1
 490.794609059 388.247833083 l 1
 472.521221071 415.726612012 l 1
 349.314418059 601 l 1
 266 601 l 1
 266 434 l 1
 266 401 l 1
 233 401 l 1
 200 401 l 1
 200 434 l 1
 200 601 l 1
 100 601 l 1
 67 601 l 1
 67 634 l 1
 67 667 l 1
 100 667 l 1
 197.870504848 667 l 1
 186.693311622 757.148398658 134.235497273 801 100 801 c 2
 67 801 l 1
 67 834 l 1
EndSplineSet
EndChar

StartChar: NameMe.326
Encoding: 326 -1 200
Width: 1000
VWidth: 0
Flags: HW
LayerCount: 2
Back
SplineSet
365 634 m 1053
365 634 m 5
 100 634 l 1029
233 634 m 21
 231.018554688 754.736328125 299 834 366 834 c 13
 500 834 l 29
 500 434 l 29
 364 434 l 29
 366 824 l 1053
100 834 m 21
 166 834 232 755 233 634 c 5
 233 434 l 1053
EndSplineSet
Fore
SplineSet
67 834 m 1
 67 867 l 1
 100 867 l 2
 155.099560941 867 202.373932685 831.318445191 232.222368033 775.640027299 c 1
 258.478357454 824.217025961 298.79556603 857.264049432 345.77377721 865.274882588 c 0
 352.434860594 866.410745923 359.200189004 867 366 867 c 2
 500 867 l 2
 519.974949969 867 533 848.163473719 533 834 c 2
 533 434 l 2
 533 414.025050031 514.163473719 401 500 401 c 2
 364 401 l 2
 344.080260033 401 330.92619602 419.692838759 331.000433916 434.169228544 c 2
 331.855976334 601 l 1
 266 601 l 1
 266 434 l 1
 266 401 l 1
 233 401 l 1
 200 401 l 1
 200 434 l 1
 200 601 l 1
 100 601 l 1
 67 601 l 1
 67 634 l 1
 67 667 l 1
 100 667 l 1
 197.870504848 667 l 1
 186.693311622 757.148398658 134.235497273 801 100 801 c 2
 67 801 l 1
 67 834 l 1
267.426072407 667 m 1
 332 667 l 1
 332.194437873 667 l 1
 332.830030584 790.940578736 l 1
 303.583804978 773.223141417 274.227266159 730.216218408 267.426072407 667 c 1
397.856844179 601 m 1
 397.169664691 467 l 1
 467 467 l 1
 467 801 l 1
 398.882485204 801 l 1
 398 628.915385172 l 1
 398 601 l 1
 397.856844179 601 l 1
EndSplineSet
EndChar

StartChar: NameMe.196
Encoding: 196 -1 201
Width: 1000
VWidth: 0
Flags: H
LayerCount: 2
Back
SplineSet
109 634 m 29
 290 634 l 1053
100 434 m 29
 100 834 l 29
 300 834 l 29
 300 434 l 29
 500 434 l 29
 500 834 l 29
 300 834 l 1053
EndSplineSet
Fore
SplineSet
333 801 m 1
 333 467 l 1
 467 467 l 1
 467 801 l 1
 333 801 l 1
300 867 m 1
 500 867 l 2
 514.163473719 867 533 853.974949969 533 834 c 2
 533 434 l 2
 533 419.836526281 519.974949969 401 500 401 c 2
 300 401 l 2
 285.836526281 401 267 414.025050031 267 434 c 2
 267 601 l 1
 133 601 l 1
 133 401 l 1
 67 401 l 1
 67 834 l 2
 67 853.974949969 85.8365262809 867 100 867 c 2
 300 867 l 1
267 667 m 1
 267 801 l 1
 133 801 l 1
 133 667 l 1
 267 667 l 1
EndSplineSet
EndChar

StartChar: NameMe.228
Encoding: 228 -1 202
Width: 1000
VWidth: 0
Flags: HW
LayerCount: 2
Back
SplineSet
109 634 m 29
 290 634 l 1053
100 434 m 29
 100 834 l 29
 300 834 l 29
 300 434 l 1045
500 434 m 13
 500 834 l 29
 300 834 l 1053
EndSplineSet
Fore
SplineSet
500 401 m 1
 467 401 l 1
 467 434 l 1
 467 801 l 1
 333 801 l 1
 333 434 l 1
 333 401 l 1
 300 401 l 1
 267 401 l 1
 267 434 l 1
 267 601 l 1
 133 601 l 1
 133 434 l 1
 133 401 l 1
 100 401 l 1
 67 401 l 1
 67 434 l 1
 67 834 l 2
 67 853.974949969 85.8365262809 867 100 867 c 2
 267 867 l 1
 300 867 l 1
 500 867 l 2
 514.163473719 867 533 853.974949969 533 834 c 2
 533 434 l 1
 533 401 l 1
 500 401 l 1
267 801 m 1
 133 801 l 1
 133 667 l 1
 267 667 l 1
 267 801 l 1
EndSplineSet
EndChar

StartChar: NameMe.260
Encoding: 260 -1 203
Width: 1000
VWidth: 0
Flags: HWO
LayerCount: 2
Back
SplineSet
109 634 m 5
 500 634 l 1053
300 834 m 29
 500 834 l 29
 500 434 l 29
 300 434 l 29
 300 834 l 29
 100 834 l 29
 100 434 l 1053
EndSplineSet
Fore
SplineSet
267 867 m 1
 300 867 l 1
 500 867 l 2
 519.974949969 867 533 848.163473719 533 834 c 2
 533 667 l 1
 533 634 l 1
 533 601 l 1
 533 434 l 2
 533 414.025050031 514.163473719 401 500 401 c 2
 300 401 l 2
 280.025050031 401 267 419.836526281 267 434 c 2
 267 601 l 1
 133 601 l 1
 133 401 l 1
 67 401 l 1
 67 834 l 2
 67 848.163473719 80.0250500307 867 100 867 c 2
 267 867 l 1
333 601 m 1
 333 467 l 1
 467 467 l 1
 467 601 l 1
 333 601 l 1
267 667 m 1
 267 801 l 1
 133 801 l 1
 133 667 l 1
 267 667 l 1
333 667 m 1
 467 667 l 1
 467 801 l 1
 333 801 l 1
 333 667 l 1
EndSplineSet
EndChar
